<?xml version="1.0" standalone="no"?>
<!DOCTYPE svg PUBLIC "-//W3C//DTD SVG 1.1//EN" "http://www.w3.org/Graphics/SVG/1.1/DTD/svg11.dtd" >
<svg xmlns="http://www.w3.org/2000/svg">
<metadata>
This is a custom SVG webfont generated by Font Squirrel.
Copyright   : Copyright URW copyright 1999 by URW Design  Development Cyrillic glyphs added by Valek Filippov copyright 20012002 Vietnamese characters were added by Han The Thanh copyright 2006 2008 for TeX Gyre extensions by B Jackowski and JM Nowacki on behalf of TeX users groups This work is released under the GUST Font License   see httptugorgfontslicensesGUSTFONTLICENSEtxt for details
</metadata>
<defs>
<font id="webfontSS9ah0ta" horiz-adv-x="1228" >
<font-face units-per-em="2048" ascent="1628" descent="-420" />
<missing-glyph horiz-adv-x="500" />
<glyph unicode=" " />
<glyph unicode="!" d="M451 1143q0 72 47 118t118.5 46t117.5 -47.5t46 -116.5q0 -14 -4 -68l-59 -608q-10 -100 -101 -100q-43 0 -70.5 26.5t-31.5 73.5l-59 608q-4 50 -4 68zM461 104.5q0 55.5 40 95.5t97 40h35q57 0 96 -39t39 -96.5t-39 -96.5t-96 -39h-35q-57 0 -97 40t-40 95.5z" />
<glyph unicode="&#x22;" d="M268 1260h246l-20 -453q-4 -55 -31 -95t-72 -40t-72.5 40t-29.5 95zM715 1260h246l-21 -453q-2 -55 -29.5 -95t-72.5 -40t-72 40t-31 95z" />
<glyph unicode="#" d="M127 387q0 100 135 100h68l14 218h-39q-137 0 -137 102t137 102h53l25 344q6 129 104 129q43 0 73 -31.5t30 -74.5l-25 -367h146l24 344q4 129 105 129q41 0 71.5 -30.5t30.5 -67.5l-27 -375h52q135 0 135 -102t-135 -102h-66l-16 -218h39q137 0 137 -102 q0 -100 -135 -100h-56l-22 -344q-8 -129 -107 -129q-43 0 -71.5 31.5t-28.5 72.5l27 369h-148l-24 -344q0 -129 -103 -129q-45 0 -73.5 29.5t-28.5 76.5q0 23 2 37l22 330h-53q-135 0 -135 102zM535 487h147l14 218h-145z" />
<glyph unicode="$" d="M170 207v125q0 137 102 137q39 0 62.5 -18.5t42.5 -81.5q12 -47 81.5 -81t155.5 -34q100 0 166 45t66 111q0 53 -39 84.5t-125 48.5l-152 30q-311 63 -311 318q0 121 83 210t214 111v54q0 135 102 135q100 0 101 -135v-54q86 -18 90 -20l47 -16q31 14 57 14 q102 0 103 -135v-66q0 -135 -103 -135q-43 0 -67.5 24.5t-35.5 55.5t-55 55.5t-120 24.5q-92 0 -147.5 -35t-55.5 -92q0 -82 154 -115l133 -29q184 -41 262 -121.5t78 -214t-90 -227.5t-250 -125v-170q0 -137 -101 -137q-102 0 -102 137v170q-88 18 -162 51q-43 -37 -80 -36 q-104 0 -104 137z" />
<glyph unicode="%" d="M164 494q0 43 61 63l742 242q25 8 41 8q23 0 41 -19.5t18 -46.5q0 -47 -61 -63l-742 -242q-29 -8 -41 -8q-23 0 -41 19.5t-18 46.5zM182 979q0 117 84 202t201 85q121 0 204 -85t83 -206q0 -115 -84 -199t-201 -84q-119 0 -203 84t-84 203zM315 979q0 -63 45.5 -108.5 t106.5 -45.5q63 0 108.5 45t45.5 107q0 63 -44.5 108t-109.5 45q-61 0 -106.5 -45t-45.5 -106zM469 256q0 117 84 201t201 84q121 0 203.5 -84t82.5 -205q0 -115 -84 -199t-202 -84q-117 0 -201 84t-84 203zM602 256q0 -63 45 -108.5t109 -45.5q61 0 106 45.5t45 106.5 q0 66 -44 110t-109 44q-61 0 -106.5 -45.5t-45.5 -106.5z" />
<glyph unicode="&#x26;" d="M154 295q0 211 196 326q-70 119 -69 196q0 125 93 217t218 92q68 0 143 -34q43 14 58 14q39 0 68.5 -32t29.5 -70q0 -35 -17.5 -57.5t-66.5 -49.5l-84 -45q-78 70 -129 70q-45 0 -77 -30t-32 -73q0 -35 58 -117l205 -296l47 167h108q135 0 135 -104q0 -39 -25.5 -67.5 t-62.5 -32.5q-29 -106 -61 -164h16q135 0 135 -102.5t-135 -102.5h-125l-22 31q-84 -59 -232 -60q-170 0 -271 88.5t-101 235.5zM358 295q0 -119 168 -119q63 0 113 29l-172 246q-109 -50 -109 -156z" />
<glyph unicode="'" d="M492 1260h245l-20 -453q-4 -55 -31 -95t-72 -40t-71.5 40t-30.5 95z" />
<glyph unicode="(" d="M541 498q0 346 237 704q37 57 59.5 74.5t57.5 17.5q45 0 74.5 -29.5t29.5 -70.5q0 -31 -24 -70q-207 -332 -207 -632q0 -299 207 -635q25 -39 24 -70q0 -41 -29.5 -70.5t-74.5 -29.5q-37 0 -63.5 23.5t-71.5 94.5q-219 349 -219 693z" />
<glyph unicode=")" d="M240 -213q0 31 24 70q207 332 207 632q0 299 -207 635q-25 39 -24 70q0 41 29.5 70.5t74.5 29.5q37 0 63.5 -23.5t71.5 -94.5q219 -348 219 -693q0 -164 -62.5 -351t-174.5 -355q-35 -53 -58.5 -71.5t-58.5 -18.5q-45 0 -74.5 29.5t-29.5 70.5z" />
<glyph unicode="*" d="M170 926q0 41 28.5 71.5t67.5 30.5q39 -4 70 -14l176 -58v183q0 135 102.5 135t102.5 -135v-183l176 58q31 10 68 14q39 0 68.5 -30.5t29.5 -71.5t-23.5 -64.5t-79.5 -42.5l-176 -57l107 -146q39 -55 39 -88q0 -41 -31 -71.5t-72 -30.5q-33 0 -52 13.5t-50 56.5l-107 147 l-106 -147q-31 -43 -51.5 -56.5t-50.5 -13.5q-41 0 -72 30.5t-31 71.5q0 37 39 88l107 146l-177 57q-57 18 -79.5 41t-22.5 66z" />
<glyph unicode="+" d="M31 512q0 43 29.5 72.5t72.5 29.5h379v379q0 43 29.5 73t72.5 30t73 -30t30 -73v-379h379q43 0 72.5 -29.5t29.5 -72.5t-29.5 -72.5t-72.5 -29.5h-379v-379q0 -43 -30 -73t-73 -30t-72.5 30t-29.5 73v379h-379q-43 0 -72.5 29.5t-29.5 72.5z" />
<glyph unicode="," d="M276 -279q0 14 3 23l131 584h245l-176 -629q-10 -35 -39.5 -57.5t-64.5 -22.5q-41 0 -70 30.5t-29 71.5z" />
<glyph unicode="-" d="M86 571.5q0 102.5 135 102.5h787q135 0 135 -102.5t-135 -102.5h-787q-135 0 -135 102.5z" />
<glyph unicode="." d="M461 104.5q0 55.5 40 95.5t95 40h37q57 0 96 -39t39 -96.5t-39 -96.5t-96 -39h-37q-55 0 -95 40t-40 95.5z" />
<glyph unicode="/" d="M170 -133q0 29 25 78l657 1388q25 51 46.5 70.5t57.5 19.5q41 0 72 -29.5t31 -68.5q0 -20 -25 -76l-655 -1390q-25 -53 -46.5 -71.5t-60.5 -18.5q-41 0 -71.5 29.5t-30.5 68.5z" />
<glyph unicode="0" d="M170 541v194q0 246 116.5 409t327.5 163q209 0 327 -163t118 -409v-194q0 -246 -118 -409t-327 -163q-211 0 -327.5 163t-116.5 409zM375 526q0 -160 65.5 -256t174 -96t174 96.5t65.5 255.5v224q0 160 -65.5 256t-174 96t-174 -96.5t-65.5 -255.5v-224z" />
<glyph unicode="1" d="M170 102.5q0 102.5 135 102.5h207v837l-178 -47q-47 -12 -66 -12q-39 0 -66.5 30.5t-27.5 76t23.5 67t85.5 37.5l434 113v-1102h207q135 0 135 -102.5t-135 -102.5h-619q-135 0 -135 102.5z" />
<glyph unicode="2" d="M111 0v215l475 401q154 139 196.5 193.5t42.5 108.5q0 78 -67.5 131t-167.5 53q-184 0 -244 -178q-20 -59 -92 -60q-41 0 -71.5 30t-30.5 69q0 127 134 235.5t308 108.5q186 0 311 -114t125 -284q0 -100 -50 -179t-202 -216l-354 -309h412q8 111 102 110q102 0 102 -135 v-180h-929z" />
<glyph unicode="3" d="M135 143q0 43 30 73t73 30q27 0 65 -25q72 -47 246 -47q195 0 272 70q57 53 58 131q0 57 -42 107t-114 79q-51 23 -158 27q-106 6 -106 94q0 45 29.5 73.5t76.5 28.5h82q76 0 131.5 48.5t55.5 113.5q0 72 -61.5 114t-168.5 42q-84 0 -135 -20.5t-100 -73.5 q-31 -31 -74 -31q-41 0 -70.5 30.5t-29.5 71.5q0 88 129 158t292 70q203 0 320 -119q102 -98 102 -238q0 -84 -43 -146.5t-143 -121.5q231 -113 231 -309q0 -188 -151 -307q-129 -96 -377 -97q-188 0 -304 48t-116 126z" />
<glyph unicode="4" d="M154 283v170l493 821h268v-787q125 0 125 -102q0 -98 -125 -102v-78q125 0 125 -102.5t-137 -102.5h-270q-135 0 -135 102.5t135 102.5h78v78h-557zM403 487h308v496z" />
<glyph unicode="5" d="M135 172q0 41 31 70.5t72 29.5q35 0 73 -30q47 -39 101.5 -53.5t154.5 -14.5q160 0 236 58.5t76 179.5q0 113 -63.5 182.5t-166 69.5t-246.5 -70q-35 -16 -57 -16q-45 0 -73.5 32.5t-28.5 81.5v582h618q135 0 135 -102.5t-135 -102.5h-413v-235q115 35 202 34 q186 0 309 -129t123 -325q0 -205 -131 -325t-383 -120q-184 0 -309 58.5t-125 144.5z" />
<glyph unicode="6" d="M215 584q0 156 57.5 293t148.5 230t209 146.5t236 53.5q109 0 174.5 -37t65.5 -96q0 -43 -31 -74t-74 -31q-10 0 -57 13.5t-65 13.5q-162 0 -290 -122t-163 -310q74 78 138.5 110.5t142.5 32.5q162 0 275.5 -123t113.5 -297q0 -186 -112 -302t-306 -116q-223 0 -343 164 t-120 451zM446 428q23 -133 80.5 -193.5t157.5 -60.5q96 0 151.5 57.5t55.5 157.5q0 88 -57.5 150.5t-141.5 62.5q-66 0 -135.5 -49t-110.5 -125z" />
<glyph unicode="7" d="M154 1094v180h886v-203l-325 -973q-33 -100 -107 -100q-41 0 -72.5 29.5t-31.5 68.5q0 29 14 70l307 903h-467q-10 -111 -102 -111q-102 1 -102 136z" />
<glyph unicode="8" d="M170 338q0 190 199 315q-180 121 -180.5 279t123.5 266.5t302 108.5q176 0 301 -108.5t125 -262.5q0 -162 -180 -283q199 -125 199 -315q0 -164 -124 -266.5t-323 -102.5q-197 0 -319.5 102.5t-122.5 266.5zM375 354q0 -78 67.5 -129t172 -51t172 50t67.5 128 t-69.5 132.5t-170.5 54.5q-98 0 -168.5 -54.5t-70.5 -130.5zM393 923.5q0 -77.5 62.5 -128t159 -50.5t159 49.5t62.5 127.5q0 80 -61.5 130t-160 50t-160 -50.5t-61.5 -128z" />
<glyph unicode="9" d="M217 102q0 43 31 74t74 31q10 0 57 -13.5t65 -13.5q162 0 290 122t163 310q-135 -143 -279 -143q-162 0 -276.5 123t-114.5 297q0 186 112 302t306 116q221 0 342 -164t121 -451q0 -307 -199.5 -515t-451.5 -208q-109 0 -174.5 37t-65.5 96zM432 887q0 -88 57.5 -150.5 t141.5 -62.5q66 0 135.5 49t110.5 125q-23 133 -80.5 193.5t-157.5 60.5q-96 0 -151.5 -57.5t-55.5 -157.5z" />
<glyph unicode=":" d="M461 104.5q0 55.5 40 95.5t95 40h37q57 0 96 -39t39 -96.5t-39 -96.5t-96 -39h-37q-55 0 -95 40t-40 95.5zM461 758q0 57 40 97t95 40h37q57 0 96 -40t39 -97.5t-39 -96t-96 -38.5h-37q-55 0 -95 40t-40 95z" />
<glyph unicode=";" d="M358 -279q0 14 2 23l132 584h245l-176 -629q-10 -35 -39.5 -57.5t-64.5 -22.5q-41 0 -70 30.5t-29 71.5zM461 758q0 57 40 97t95 40h37q57 0 96 -40t39 -97.5t-39 -96t-96 -38.5h-37q-55 0 -95 40t-40 95z" />
<glyph unicode="&#x3c;" d="M164 512q0 59 53 90l696 383q20 12 50 12q43 0 72.5 -29.5t29.5 -72.5q0 -59 -53 -90l-533 -293l533 -293q53 -31 53 -90q0 -43 -29.5 -72.5t-72.5 -29.5q-29 0 -50 12l-696 383q-53 31 -53 90z" />
<glyph unicode="=" d="M31 313q0 41 29.5 72t72.5 31h963q43 0 72.5 -31t29.5 -72q0 -43 -29.5 -72.5t-72.5 -29.5h-963q-43 0 -72.5 29.5t-29.5 72.5zM31 711q0 43 29.5 72.5t72.5 29.5h963q43 0 72.5 -29.5t29.5 -72.5q0 -41 -29.5 -72t-72.5 -31h-963q-43 0 -72.5 31t-29.5 72z" />
<glyph unicode="&#x3e;" d="M164 129q0 59 53 90l533 293l-533 293q-53 31 -53 90q0 43 29.5 72.5t72.5 29.5q29 0 49 -12l697 -383q53 -31 53 -90t-53 -90l-697 -383q-20 -12 -49 -12q-43 0 -72.5 29.5t-29.5 72.5z" />
<glyph unicode="?" d="M213 942v162q147 72 233 96.5t185 24.5q190 0 309 -107.5t119 -279.5q0 -125 -75 -207t-261 -164q-12 -111 -102 -111q-102 0 -103 136v114q197 76 266.5 126t69.5 116q0 76 -61.5 124t-159.5 48q-113 0 -215 -49v-29q0 -135 -102.5 -135t-102.5 135zM465 104.5 q0 55.5 40 95.5t97 40h35q57 0 96 -39t39 -96.5t-39 -96.5t-96 -39h-35q-57 0 -97 40t-40 95.5z" />
<glyph unicode="@" d="M156 315v347q0 264 130 436t330 172q166 0 272.5 -110.5t106.5 -280.5v-576q47 -20 47 -72q0 -84 -112 -84h-96v7q-47 -6 -68 -7q-131 0 -225.5 94.5t-94.5 221.5q0 143 108 240.5t280 109.5v66q0 102 -60.5 165.5t-155.5 63.5q-129 0 -215 -131t-86 -328v-319 q0 -205 79 -343.5t229 -138.5q145 0 211 66q35 35 63 35q35 0 58.5 -24.5t23.5 -59.5q0 -72 -107.5 -124t-255.5 -52q-211 0 -336.5 172.5t-125.5 453.5zM608 461q0 -63 49.5 -105.5t122.5 -42.5q25 0 54 4v330q-102 -10 -164 -60t-62 -126z" />
<glyph unicode="A" d="M-43 102.5q0 102.5 137 102.5l318 784h-129q-137 0 -137.5 102.5t137.5 102.5h442l408 -989q139 0 139 -102.5t-135 -102.5h-285q-135 0 -135 102.5t135 102.5h47l-47 119h-487l-48 -119h48q135 0 135 -102.5t-135 -102.5h-273q-135 0 -135 102.5zM446 528h322l-160 394z " />
<glyph unicode="B" d="M27 102q0 49 26.5 76t100.5 27h39v784h-41q-76 0 -100.5 26.5t-24.5 76.5q0 102 135 102h518q174 0 287.5 -96.5t113.5 -241.5q0 -131 -129 -231q217 -109 217 -297q0 -147 -110.5 -237.5t-292.5 -90.5h-604q-135 0 -135 102zM397 205h359q209 0 209 110q0 78 -80 129.5 t-211 51.5h-277v-291zM397 700h232q111 0 179.5 44t68.5 114q0 61 -55.5 96t-151.5 35h-273v-289z" />
<glyph unicode="C" d="M68 510v135q0 246 159.5 412t397.5 166q143 0 290 -70l21 -8q35 49 86 49q102 0 102 -135v-172q0 -135 -102 -135q-43 0 -65.5 21.5t-34.5 86.5q-12 68 -97.5 113t-191.5 45q-156 0 -258.5 -105.5t-102.5 -267.5v-131q0 -154 110 -246t294 -92q115 0 173 21.5t130 95.5 q33 33 74 33t71.5 -31t30.5 -72q0 -92 -147.5 -172t-337.5 -80q-260 0 -431 153t-171 386z" />
<glyph unicode="D" d="M27 102q0 49 32.5 76t92.5 27v784q-125 0 -125 102.5t137 102.5h434q223 0 375.5 -164t152.5 -405v-97q0 -233 -148.5 -380.5t-395.5 -147.5h-418q-137 0 -137 102zM356 205h228q164 0 251 87t87 243v94q0 152 -92.5 256t-247.5 104h-226v-784z" />
<glyph unicode="E" d="M27 102q0 47 26.5 75t100.5 28h39v784h-39q-74 0 -100.5 27.5t-26.5 75.5q0 102 135 102h919v-307q0 -137 -102 -137t-102 137v102h-480v-289h174q0 78 29 115t72 37q102 0 102 -137v-232q0 -135 -100 -135q-102 0 -103 150h-174v-293h525v106q0 137 102 137.5 t102 -137.5v-311h-964q-135 0 -135 102z" />
<glyph unicode="F" d="M27 102q0 49 26.5 76t100.5 27h39v784h-39q-74 0 -100.5 27.5t-26.5 75.5q0 102 135 102h964v-309q0 -135 -102 -135t-102 135v104h-525v-289h174q0 76 29 113t74 37q100 0 100 -135v-232q0 -137 -100 -137q-102 0 -103 152h-174v-293h205q135 0 135 -102.5t-135 -102.5 h-440q-135 0 -135 102z" />
<glyph unicode="G" d="M68 504v145q0 240 164.5 407t416.5 167q166 0 297 -66q33 66 84 66q96 0 96 -136v-159q0 -135 -102 -135q-29 0 -43 5t-29.5 28.5t-27.5 74.5q-16 53 -89 85t-184 32q-176 0 -277.5 -105.5t-101.5 -263.5v-131q0 -342 394 -342q141 0 256 51v142h-205q-135 0 -135 102 t135 102h358q137 0 137 -102q0 -78 -86 -102v-271q-137 -72 -233 -99.5t-215 -27.5q-291 0 -450.5 141.5t-159.5 391.5z" />
<glyph unicode="H" d="M47 102.5q0 102.5 148 102.5v784q-106 10 -107 103q0 102 135 102h207q135 0 135 -102q0 -49 -27.5 -76t-99.5 -27h-39v-291h439v291h-39q-74 0 -100.5 26.5t-26.5 76.5q0 102 135 102h207q135 0 135 -102q0 -92 -107 -103v-784q76 0 112 -30t36 -73q0 -102 -135 -102 h-248q-135 0 -135 102q0 49 26.5 76t100.5 27h39v289h-439v-289h39q76 0 101.5 -27.5t25.5 -75.5q0 -102 -135 -102h-248q-135 0 -135 102.5z" />
<glyph unicode="I" d="M170 102.5q0 102.5 135 102.5h207v784h-207q-135 0 -135 102.5t135 102.5h619q135 0 135 -102.5t-135 -102.5h-207v-784h207q135 0 135 -102.5t-135 -102.5h-619q-135 0 -135 102.5z" />
<glyph unicode="J" d="M111 104v332q0 137 102 137t102 -137v-196q141 -63 240 -64q113 0 178.5 58.5t65.5 171.5v583h-244q-135 0 -135 102.5t135 102.5h565q135 0 135 -102.5t-135 -102.5h-116v-606q0 -180 -130.5 -296t-322.5 -116q-172 0 -440 133z" />
<glyph unicode="K" d="M27 102q0 49 26.5 76t100.5 27h39v784h-39q-74 0 -100.5 27.5t-26.5 75.5q0 102 135 102h307q135 0 135 -102.5t-135 -102.5h-72v-305l365 313q-63 25 -64 93q0 104 136 104h204q135 0 135.5 -102.5t-126.5 -102.5l-361 -313q199 -104 346 -471h66q135 0 135 -102.5 t-135 -102.5h-226q-72 219 -165 360.5t-187 169.5l-123 -104v-221h72q135 0 135 -102.5t-135 -102.5h-307q-135 0 -135 102z" />
<glyph unicode="L" d="M68 102.5q0 102.5 135 102.5h116v784h-116q-135 0 -135 102.5t135 102.5h438q135 0 135 -102.5t-135 -102.5h-117v-784h441v188q0 137 102 137t102 -137v-393h-966q-135 0 -135 102.5z" />
<glyph unicode="M" d="M-39 102.5q0 102.5 125 102.5v784q-106 10 -106 105q0 102 126 102h232l283 -610l276 608h225q135 0 135 -102q0 -92 -106 -103v-784q125 0 125 -102.5t-135 -102.5h-267q-135 0 -135 102.5t135 102.5h72v592l-227 -514h-187l-241 514v-592h71q135 0 135.5 -102.5 t-135.5 -102.5h-264q-137 0 -137 102.5z" />
<glyph unicode="N" d="M-16 1092q0 102 135 102h235l529 -803v598h-72q-135 0 -135 102.5t135 102.5h266q135 0 135 -102.5t-125 -102.5v-989h-202l-531 807v-602h72q135 0 135 -102.5t-135 -102.5h-264q-137 0 -137 102.5t125 102.5v784h-39q-74 0 -100.5 28t-26.5 75z" />
<glyph unicode="O" d="M43 598q0 258 168 441.5t403.5 183.5t403.5 -184.5t168 -450.5q0 -252 -169 -434.5t-403 -182.5q-238 0 -404.5 183.5t-166.5 443.5zM248 598q0 -174 107.5 -298t258.5 -124q150 0 258.5 123t108.5 293q0 176 -107.5 301t-259.5 125q-150 0 -258 -124t-108 -296z" />
<glyph unicode="P" d="M27 102q0 49 26.5 76t100.5 27h39v784h-39q-76 0 -101.5 27.5t-25.5 75.5q0 102 135 102h477q195 0 319.5 -108.5t124.5 -278.5q0 -150 -102 -262q-68 -76 -154 -105.5t-229 -29.5h-201v-205h203q135 0 135 -102.5t-135 -102.5h-438q-135 0 -135 102zM397 614h242 q106 0 166.5 50.5t60.5 136.5q0 88 -60.5 138t-166.5 50h-242v-375z" />
<glyph unicode="Q" d="M43 598q0 258 168 441.5t403.5 183.5t403.5 -182.5t168 -438.5q0 -246 -163 -431t-431 -185l-37 2l-8 -49q61 10 104 10q41 0 141.5 -20.5t114.5 -20.5q27 0 94.5 32.5t75.5 32.5q45 0 75 -29.5t30 -72.5q0 -68 -97.5 -118t-175.5 -50q-25 0 -110.5 28.5t-159.5 28.5 q-27 0 -149.5 -26.5t-151.5 -26.5q-39 0 -68.5 32t-29.5 75q0 37 41 77l127 123q-209 119 -287 256.5t-78 327.5zM248 596q0 -172 108.5 -297t258 -125t258 123t108.5 293q0 178 -107.5 303t-259 125t-259 -124t-107.5 -298z" />
<glyph unicode="R" d="M27 102q0 49 26.5 76t100.5 27h39v784h-39q-74 0 -100.5 27.5t-26.5 75.5q0 102 135 102h456q199 0 325 -101.5t126 -263.5q0 -188 -221 -309q133 -117 258 -315h35q74 0 100.5 -25.5t26.5 -77.5q0 -102 -135 -102h-162q-76 147 -194 289.5t-183 165.5h-197v-250h72 q135 0 135 -102.5t-135 -102.5h-307q-135 0 -135 102zM397 659h156q129 0 214 50.5t85 126.5q0 66 -63.5 109.5t-161.5 43.5h-230v-330z" />
<glyph unicode="S" d="M127 137v135q0 135 102 136q41 0 63.5 -17.5t41.5 -81.5q14 -55 98 -94t186 -39q115 0 193 45t78 111q0 63 -53.5 97t-235.5 67q-225 39 -328.5 126t-103.5 238q0 156 127 259.5t317 103.5q158 0 267 -68q16 39 32.5 53.5t46.5 14.5q100 0 101 -136v-180 q0 -137 -101 -137q-45 0 -65.5 18.5t-36.5 92.5q-14 61 -80.5 99t-163 38t-164 -45t-67.5 -111q0 -33 21.5 -64.5t54.5 -47.5q47 -25 205 -54q150 -29 239.5 -61.5t132.5 -81.5t55.5 -97t12.5 -128q0 -160 -129 -258.5t-340 -98.5q-170 0 -320 80q-41 -49 -82 -49 q-104 0 -104 135z" />
<glyph unicode="T" d="M86 799v395h1057v-395q0 -135 -102.5 -135t-102.5 135v190h-223v-784h135q135 0 135 -102.5t-135 -102.5h-473q-135 0 -135 102.5t135 102.5h133v784h-219v-190q0 -135 -102.5 -135t-102.5 135z" />
<glyph unicode="U" d="M20 1092q0 102 136 102h266q135 0 135 -102.5t-135 -102.5h-72v-588q0 -94 78 -159.5t186.5 -65.5t186.5 65.5t78 159.5v588h-72q-135 0 -135 102.5t135 102.5h266q135 0 135 -102.5t-125 -102.5v-569q0 -186 -136 -317.5t-333 -131.5q-195 0 -332 131t-137 318v569 q-125 5 -125 103z" />
<glyph unicode="V" d="M-43 1092q0 102 135 102h273q135 0 135 -102.5t-135 -102.5h-50l306 -694l305 694h-60q-135 0 -135 102.5t135 102.5h271q135 0 135 -102q0 -55 -31 -79t-98 -24l-430 -989h-203l-424 989q-68 0 -98.5 24t-30.5 79z" />
<glyph unicode="W" d="M-20 1087q0 106 135 107h268q137 0 137 -102.5t-137 -102.5h-98l73 -557l156 463h213l156 -463l71 557h-108q-135 0 -135 102.5t135 102.5h268q135 0 135 -102q0 -86 -96 -103l-123 -989h-225l-191 567l-186 -567h-227l-127 989q-94 12 -94 98z" />
<glyph unicode="X" d="M20 102q0 47 32 75t89 28l340 405l-323 379q-119 6 -119 103q0 102 135 102h186q137 0 138 -102q0 -63 -78 -101l194 -223l191 223q-78 39 -78 101q0 102 137 102h185q135 0 135 -102q0 -98 -117 -103l-322 -381l342 -403q121 -4 121 -103q0 -102 -135 -102h-227 q-135 0 -135 102q0 96 112 103l-207 246l-208 -246q111 -6 110 -103q0 -102 -135 -102h-227q-136 0 -136 102z" />
<glyph unicode="Y" d="M43 1091.5q0 102.5 137 102.5h182q135 0 136 -102q0 -68 -78 -101l194 -278l193 278q-82 31 -82 101q0 102 137 102h189q135 0 135 -102q0 -45 -33 -74t-80 -29h-20l-336 -487v-297h133q137 0 137 -102.5t-137 -102.5h-471q-137 0 -137 102.5t137 102.5h133v297l-338 487 q-131 0 -131 102.5z" />
<glyph unicode="Z" d="M150 0v205l618 784h-367v-143q0 -135 -102 -135t-102 135v348h835v-199l-620 -790h462v147q0 135 102.5 135t102.5 -135v-352h-929z" />
<glyph unicode="[" d="M512 -303v1587h324q135 0 135 -102.5t-135 -102.5h-119v-1177h121q135 0 135 -102.5t-135 -102.5h-326z" />
<glyph unicode="\" d="M170 1325q0 39 30.5 68.5t71.5 29.5q37 0 58.5 -18.5t46.5 -71.5l657 -1388q25 -55 25 -78q0 -39 -31 -68.5t-72 -29.5q-37 0 -59.5 19t-46.5 71l-655 1390q-27 53 -25 76z" />
<glyph unicode="]" d="M256 1181.5q0 102.5 135 102.5h326v-1587h-324q-135 0 -135 102.5t135 102.5h119v1177h-121q-135 0 -135 102.5z" />
<glyph unicode="^" d="M170 768q0 35 45 90l397 477l402 -477q45 -53 45 -90q0 -41 -31 -71.5t-72 -30.5q-29 0 -48 11t-52 50l-244 285l-239 -283q-35 -41 -52.5 -52t-48.5 -11q-41 0 -71.5 30.5t-30.5 71.5z" />
<glyph unicode="_" d="M-25 -154h1278v-102h-1278v102z" />
<glyph unicode="`" d="M285 1303q0 33 23.5 57t58.5 24q27 0 47 -14l329 -229q35 -23 35 -68q0 -33 -24.5 -57.5t-57.5 -24.5q-25 0 -45 15l-329 229q-37 23 -37 68z" />
<glyph unicode="a" d="M86 244q0 150 144.5 248t351.5 98q92 0 213 -21v47q0 100 -191 101q-104 0 -237 -35q-53 -12 -82 -12q-43 0 -72 29.5t-29 74.5q0 66 62 86q174 61 352 62q188 0 295.5 -80t107.5 -224v-413h33q135 0 135 -102.5t-135 -102.5h-239v47q-154 -80 -340 -80q-152 0 -260.5 81 t-108.5 196zM303 252q0 -35 45 -57.5t111 -22.5q168 0 338 104v103q-129 23 -228 22q-104 0 -185 -45t-81 -104z" />
<glyph unicode="b" d="M-16 102.5q0 102.5 135 102.5h33v868h-33q-135 0 -135 102.5t135 102.5h237v-457q129 102 308 103q223 0 364 -136.5t141 -341.5q0 -201 -140 -338t-363 -137q-164 0 -310 101v-72h-237q-135 0 -135 102.5zM356 451q0 -121 85 -198t220.5 -77t219.5 78t84 195 q0 115 -86 192.5t-217 77.5q-135 0 -220.5 -78.5t-85.5 -189.5z" />
<glyph unicode="c" d="M111 424q0 219 146 358.5t378 139.5q176 0 295 -62q18 61 78 62q98 0 98 -136v-157q0 -135 -102 -135q-41 0 -67 19t-38 79q-29 125 -264 125q-145 0 -232.5 -83t-87.5 -210q0 -252 361 -252q121 0 183.5 16.5t133.5 73.5q27 25 62 25q41 0 71.5 -31t30.5 -74 q0 -86 -137 -150.5t-358 -64.5q-262 0 -406.5 123t-144.5 334z" />
<glyph unicode="d" d="M68 448.5q0 202.5 141 339t366 136.5q178 0 308 -103v254h-33q-135 0 -135 103q0 100 135 100h237v-1073h33q135 0 135 -102.5t-135 -102.5h-237v72q-147 -100 -310 -101q-225 0 -365 137.5t-140 340zM272 449q0 -115 84 -194t222 -79q135 0 220 79t85 189q0 119 -85 197 t-223 78q-135 0 -219 -78.5t-84 -191.5z" />
<glyph unicode="e" d="M68 442q0 203 152.5 341.5t375.5 138.5q229 0 379.5 -139.5t150.5 -350.5v-80h-835q70 -180 336 -180q115 0 334 57q41 10 67 11q41 0 69.5 -30t28.5 -73q0 -78 -161.5 -124t-356.5 -46q-238 0 -389 133t-151 342zM297 532h602q-25 84 -106.5 134.5t-194.5 50.5 t-195.5 -51.5t-105.5 -133.5z" />
<glyph unicode="f" d="M154 102.5q0 102.5 135 102.5h119v485h-97q-135 0 -135 102.5t137 102.5h95v76q0 141 106.5 223t288.5 82q367 0 366 -129q0 -45 -27.5 -75t-68.5 -30q-20 0 -132 14.5t-157 14.5q-172 0 -172 -100v-76h310q135 0 135 -102.5t-135 -102.5h-310v-485h285q135 0 135 -102.5 t-135 -102.5h-608q-135 0 -135 102.5z" />
<glyph unicode="g" d="M68 446q0 205 138 341.5t345 136.5q168 0 289 -103v74h237q135 0 135 -102.5t-135 -102.5h-33v-731q0 -162 -111.5 -270.5t-279.5 -108.5h-229q-135 0 -135 102.5t135 102.5h223q88 0 140.5 47t52.5 127v113q-135 -100 -289 -101q-207 0 -345 136t-138 339zM272 448.5 q0 -112.5 83 -192.5t200 -80t201 79t84 189q0 115 -83 195t-202 80q-117 0 -200 -79t-83 -191.5z" />
<glyph unicode="h" d="M27 1175.5q0 102.5 135 102.5h237v-481q123 125 281 125q164 0 263 -93.5t99 -246.5v-377h13q135 0 135 -102.5t-135 -102.5h-230q-137 0 -137 102.5t137 102.5h13v350q0 90 -45 126t-136 36q-72 0 -121 -26.5t-137 -110.5v-375h13q137 0 137 -102.5t-137 -102.5h-230 q-135 0 -135 102.5t135 102.5h13v868h-33q-135 0 -135 102.5z" />
<glyph unicode="i" d="M127 102.5q0 102.5 135 102.5h250v485h-160q-137 0 -137 102.5t137 102.5h365v-690h250q135 0 135 -102.5t-135 -102.5h-705q-135 0 -135 102.5zM492 1188q0 51 35.5 87t87 36t87 -36t35.5 -89q0 -49 -35.5 -85t-87 -36t-87 36t-35.5 87z" />
<glyph unicode="j" d="M240 -317.5q0 102.5 135 102.5h227q88 0 140.5 47t52.5 127v731h-414q-135 0 -135 102.5t135 102.5h618v-936q0 -162 -111.5 -270.5t-279.5 -108.5h-233q-135 0 -135 102.5zM670 1188q0 51 35.5 87t87 36t87 -36t35.5 -89q0 -49 -35.5 -85t-87 -36t-87 36t-35.5 87z" />
<glyph unicode="k" d="M68 102.5q0 102.5 135 102.5h33v868h-33q-135 0 -135 102.5t135 102.5h237v-690l162 129q-33 39 -33 76q0 102 138 102h229q135 0 135 -102.5t-135 -102.5h-57l-242 -196l328 -289h67q137 0 137 -102.5t-137 -102.5h-241q-135 0 -136 102q0 41 33 76l-211 187l-37 -29 v-336h-237q-135 0 -135 102.5z" />
<glyph unicode="l" d="M127 102.5q0 102.5 135 102.5h250v868h-160q-137 0 -137 102.5t137 102.5h365v-1073h250q135 0 135 -102.5t-135 -102.5h-705q-135 0 -135 102.5z" />
<glyph unicode="m" d="M-39 102.5q0 102.5 123 102.5v485q-123 4 -123 103q0 102 137 102h191v-49q94 76 174 76q117 0 209 -101q92 100 213 101q115 0 191.5 -77t76.5 -192v-448q123 0 123 -102.5t-135 -102.5h-193v637q0 45 -15 62.5t-56 17.5t-73 -18.5t-83 -73.5v-420q57 0 90 -27.5 t33 -75.5q0 -102 -135 -102h-193v637q0 43 -16.5 61.5t-55.5 18.5q-74 0 -155 -92v-420q125 0 125 -102.5t-135 -102.5h-181q-137 0 -137 102.5z" />
<glyph unicode="n" d="M47 102.5q0 102.5 135 102.5h13v485q-125 4 -125 103q0 102 137 102h192v-98q74 70 135.5 97.5t145.5 27.5q160 0 262 -92.5t102 -251.5v-373q125 0 125 -102.5t-135 -102.5h-182q-137 0 -137 102.5t125 102.5v364q0 147 -185 148q-72 0 -128 -31t-128 -108v-373h13 q135 0 135 -102.5t-135 -102.5h-230q-135 0 -135 102.5z" />
<glyph unicode="o" d="M86 444q0 203 153.5 340.5t381.5 137.5q217 0 369.5 -139.5t152.5 -338.5q0 -201 -153.5 -339t-375 -138t-375 138t-153.5 339zM291 444q0 -115 93 -193.5t230.5 -78.5t230.5 79t93 193.5t-93 193.5t-227 79q-139 0 -233 -78t-94 -195z" />
<glyph unicode="p" d="M-16 -317.5q0 102.5 135 102.5h33v905h-33q-135 0 -135 102.5t135 102.5h237v-92q139 119 314 119q215 0 357 -132.5t142 -330.5q0 -195 -143 -341.5t-352 -146.5q-168 0 -318 115v-301h119q135 0 135 -102.5t-135 -102.5h-356q-135 0 -135 102.5zM356 449 q0 -113 86 -193t220 -80q129 0 216 80t87 190q0 106 -87 188.5t-216 82.5q-133 0 -219.5 -82t-86.5 -186z" />
<glyph unicode="q" d="M68 434q0 203 143 345.5t356 142.5q96 0 168 -27t148 -92v92h237q135 0 135 -102.5t-135 -102.5h-33v-905h33q135 0 135 -102.5t-135 -102.5h-356q-135 0 -135 102.5t135 102.5h119v301q-150 -115 -320 -115q-211 0 -353 136.5t-142 326.5zM272 446.5q0 -104.5 85 -187.5 t220.5 -83t220.5 83t85 185q0 113 -87 193t-221 80q-131 0 -217 -83t-86 -187.5z" />
<glyph unicode="r" d="M111 102.5q0 102.5 135 102.5h119v485h-72q-135 0 -135 102.5t135 102.5h276v-133q123 92 195 125t147 33q80 0 169 -54.5t89 -120.5q0 -43 -30.5 -73.5t-71.5 -30.5q-27 0 -81 37t-79 37q-49 0 -119.5 -44t-218.5 -165v-301h285q137 0 137 -102.5t-137 -102.5h-608 q-135 0 -135 102.5z" />
<glyph unicode="s" d="M150 137v68q0 137 104 137q78 0 104 -90q88 -80 256 -80q98 0 169 26.5t71 61.5q0 41 -51 65.5t-207 41.5q-215 23 -311.5 88t-96.5 186q0 123 119 202t303 79q150 0 264 -54q23 53 66 54q96 0 96 -136v-75q0 -135 -102 -136q-61 0 -96 64l-11 18q-84 59 -211 60 q-78 0 -140 -21.5t-62 -50.5t53 -49q31 -10 172 -31q246 -33 343 -105.5t97 -203.5q0 -125 -129 -207t-327 -82q-178 0 -304 60q-31 -25 -65 -25q-104 0 -104 135z" />
<glyph unicode="t" d="M27 792.5q0 102.5 135 102.5h71v180q0 135 102.5 135t102.5 -135v-180h371q135 0 135 -102.5t-135 -102.5h-371v-401q0 -72 39 -94.5t137 -22.5q162 0 299 70q43 23 72 22q41 0 69.5 -30.5t28.5 -73.5q0 -78 -159.5 -135.5t-311.5 -57.5q-174 0 -276.5 76t-102.5 207v440 h-71q-135 0 -135 102.5z" />
<glyph unicode="u" d="M27 793q0 102 135 102h237v-569q0 -147 181 -148q78 0 129 27.5t131 111.5v373h-72q-135 0 -135 102.5t135 102.5h276v-690q125 0 125 -102.5t-135 -102.5h-194v98q-76 -72 -136.5 -98.5t-144.5 -26.5q-162 0 -263 92.5t-101 253.5v371h-56h-6q-43 0 -74 28 q-32 30 -32 75z" />
<glyph unicode="v" d="M0 792.5q0 102.5 135 102.5h271q135 0 135 -102q0 -51 -23.5 -77t-97.5 -26h-25l223 -440l220 440h-21q-135 0 -135 102.5t135 102.5h277q135 0 135 -102.5t-135 -102.5h-33l-342 -690h-213l-342 690h-29q-135 0 -135 102.5z" />
<glyph unicode="w" d="M0 793q0 102 135 102h189q135 0 135 -102q0 -100 -131 -101l80 -313l122 323h181l125 -323l82 313h-15q-135 0 -135 101q0 102 135 102h191q135 0 135 -102q0 -94 -107 -101l-172 -692h-188l-146 371l-139 -371h-192l-174 692q-53 4 -82 30t-29 71z" />
<glyph unicode="x" d="M43 102q0 96 111 103l297 262l-263 223q-106 10 -106 103q0 102 135 102h189q135 0 135 -100q0 -59 -54 -95l125 -100l125 102q-53 37 -53 89q0 104 135 104h187q137 0 137 -102q0 -92 -109 -103l-270 -225l311 -260q111 -6 111 -103q0 -102 -135 -102h-230 q-137 0 -137 104q0 78 82 101l-154 125l-149 -125q78 -33 78 -101q0 -104 -135 -104h-228q-135 0 -135 102z" />
<glyph unicode="y" d="M43 -317.5q0 102.5 135 102.5h205l113 221l-353 684q-100 12 -100 103q0 102 135 102h184q135 0 136 -102q0 -98 -121 -103l233 -457l246 457q-131 0 -131 102.5t137 102.5h189q135 0 135 -102q0 -92 -107 -103l-471 -905h10q135 0 135.5 -102.5t-135.5 -102.5h-440 q-135 0 -135 102.5z" />
<glyph unicode="z" d="M174 0v170l535 520h-306v-18q0 -135 -102 -135t-102 135v223h837v-166l-536 -524h358q6 111 103 110q102 0 102 -135v-180h-889z" />
<glyph unicode="{" d="M342 491.5q0 92.5 100 102.5q39 4 52.5 20.5t13.5 57.5v336q0 109 79 188.5t185 79.5q51 0 83 -27.5t32 -74.5q0 -43 -28 -73t-73 -32q-43 -4 -58 -19.5t-15 -56.5v-321q0 -66 -12.5 -101.5t-47.5 -78.5q37 -45 48.5 -83t11.5 -118v-322q0 -41 15 -56t58 -19 q45 -2 73 -32t28 -73q0 -47 -31 -74.5t-82 -27.5q-109 0 -187.5 79.5t-78.5 188.5v354q0 43 -12.5 58.5t-53.5 19.5q-100 12 -100 104.5z" />
<glyph unicode="|" d="M512 -303v1587h205v-1587h-205z" />
<glyph unicode="}" d="M342 -211q0 41 27.5 71.5t72.5 33.5q43 2 58.5 17t15.5 58v322q0 66 12.5 101.5t46.5 78.5q-37 45 -48 83t-11 118v321q0 41 -15.5 56.5t-58.5 19.5q-45 2 -72.5 31.5t-27.5 73.5q0 47 30.5 74.5t82.5 27.5q109 0 187.5 -80t78.5 -188v-355q0 -43 12 -58t53 -20 q100 -12 100.5 -104t-100.5 -102q-39 -4 -52 -20.5t-13 -57.5v-336q0 -109 -79 -188.5t-185 -79.5q-51 0 -83 27.5t-32 74.5z" />
<glyph unicode="~" d="M127 516q0 53 80 143q113 129 229 129q66 0 119 -30.5t162 -128.5q49 -47 80 -47q29 0 100 94q31 41 51.5 55t50.5 14q41 0 72 -30.5t31 -71.5q0 -51 -84 -149q-106 -127 -217 -127t-281 153q-66 55 -86 55q-27 0 -96 -86q-41 -49 -60.5 -63t-46.5 -14q-41 0 -72.5 31.5 t-31.5 72.5z" />
<glyph unicode="&#xa0;" />
<glyph unicode="&#xa2;" d="M170 639q0 150 96 266.5t248 153.5v158q0 137 102.5 137t102.5 -137v-138q92 -14 149 -49q25 8 41 8q104 0 105 -135v-86q0 -135 -103 -135q-41 0 -63.5 17.5t-38.5 86.5q-23 88 -154 88q-121 0 -200.5 -68.5t-79.5 -170.5q0 -96 74.5 -164t185.5 -68q113 0 215 74 q33 25 70 25q41 0 71.5 -32t30.5 -73q0 -63 -84 -117.5t-219 -76.5v-158q0 -135 -102.5 -135t-102.5 135v166q-158 39 -251 154.5t-93 273.5z" />
<glyph unicode="&#xa3;" d="M68 600q0 102 135 102h90q-35 104 -35 183q0 150 99.5 245t254.5 95q121 0 222.5 -66.5t101.5 -144.5q0 -43 -29.5 -74t-70.5 -31q-29 0 -46.5 10.5t-50.5 47.5q-47 53 -129 53q-63 0 -105 -36t-42 -89q0 -47 41 -193h139q137 0 137 -102t-137 -102h-92q2 -25 2 -56 q0 -121 -47 -237h416q12 94 100 94q47 0 75.5 -30.5t28.5 -84.5q0 -90 -57 -137t-164 -47h-657q-135 0 -135 104q0 80 102 101q131 25 131 254q0 23 -2 39h-141q-135 0 -135 102z" />
<glyph unicode="&#xa5;" d="M43 1085q0 102 135 103h189q137 0 137 -103q0 -37 -22.5 -64.5t-57.5 -33.5l192 -274l195 272q-84 23 -84 100q0 102 137 103h187q135 0 135 -103q0 -49 -19.5 -75.5t-79.5 -26.5h-32l-287 -408h147q63 0 63.5 -57t-63.5 -57h-198v-70h198q63 0 63.5 -57.5t-63.5 -57.5 h-198v-71h96q135 0 135 -102.5t-135 -102.5h-397q-135 0 -135 102.5t137 102.5h94v71h-199q-63 0 -63 57.5t63 57.5h199v70h-199q-63 0 -63 57t63 57h148l-283 410h-33q-47 0 -74.5 27.5t-27.5 72.5z" />
<glyph unicode="&#xa9;" d="M20 565q0 246 174.5 420t420 174t419.5 -174t174 -420t-174 -420t-419.5 -174t-420 174t-174.5 420zM143 565.5q0 -194.5 138.5 -333t333 -138.5t332.5 138.5t138 333t-138 332.5t-332.5 138t-333 -138t-138.5 -332.5zM311 528v58q0 109 89 185.5t223 76.5q76 0 159 -31 l11 -2q20 20 49 21q59 0 59 -76v-72q0 -59 -59 -59q-51 0 -60 35q-6 27 -52 44t-103 17q-82 0 -137.5 -39t-55.5 -100v-56q0 -59 59.5 -91.5t157.5 -32.5q61 0 93 9t73 40q23 14 41 14q27 0 44.5 -19.5t17.5 -41.5q0 -43 -83 -84t-190 -41q-147 0 -241.5 70.5t-94.5 174.5z " />
<glyph unicode="&#xad;" d="M86 571.5q0 102.5 135 102.5h787q135 0 135 -102.5t-135 -102.5h-787q-135 0 -135 102.5z" />
<glyph unicode="&#xae;" d="M20 565q0 246 174.5 420t420 174t419.5 -174t174 -420t-174 -420t-419.5 -174t-420 174t-174.5 420zM143 565.5q0 -194.5 138.5 -333t333 -138.5t332.5 138.5t138 333t-138 332.5t-332.5 138t-333 -138t-138.5 -332.5zM268 356q0 18 4 29.5t21.5 22t50.5 10.5h16v295h-16 q-76 0 -76 61.5t80 61.5h250q113 0 183.5 -50.5t70.5 -121.5q0 -82 -96 -136q57 -45 110 -110h19q47 0 61.5 -16.5t14.5 -45.5q0 -61 -80 -61h-88q-2 0 -2 2q-45 68 -107.5 131.5t-99.5 75.5h-101v-86h33q80 0 80 -61.5t-80 -61.5h-168q-80 0 -80 61zM483 594h80 q70 0 115 19.5t45 52.5q0 47 -119 47h-121v-119z" />
<glyph unicode="&#xb4;" d="M451 1073q0 45 34 68l330 229q20 14 47 14q35 0 58.5 -24.5t23.5 -56.5q0 -45 -37 -68l-329 -229q-20 -14 -46 -15q-33 0 -57 24.5t-24 57.5z" />
<glyph unicode="&#x2000;" horiz-adv-x="710" />
<glyph unicode="&#x2001;" horiz-adv-x="1423" />
<glyph unicode="&#x2002;" horiz-adv-x="710" />
<glyph unicode="&#x2003;" horiz-adv-x="1423" />
<glyph unicode="&#x2004;" horiz-adv-x="473" />
<glyph unicode="&#x2005;" horiz-adv-x="354" />
<glyph unicode="&#x2006;" horiz-adv-x="235" />
<glyph unicode="&#x2007;" horiz-adv-x="235" />
<glyph unicode="&#x2008;" horiz-adv-x="176" />
<glyph unicode="&#x2009;" horiz-adv-x="284" />
<glyph unicode="&#x200a;" horiz-adv-x="77" />
<glyph unicode="&#x2010;" d="M86 571.5q0 102.5 135 102.5h787q135 0 135 -102.5t-135 -102.5h-787q-135 0 -135 102.5z" />
<glyph unicode="&#x2011;" d="M86 571.5q0 102.5 135 102.5h787q135 0 135 -102.5t-135 -102.5h-787q-135 0 -135 102.5z" />
<glyph unicode="&#x2012;" d="M86 571.5q0 102.5 135 102.5h787q135 0 135 -102.5t-135 -102.5h-787q-135 0 -135 102.5z" />
<glyph unicode="&#x2013;" d="M86 571.5q0 102.5 135 102.5h787q135 0 135 -102.5t-135 -102.5h-787q-135 0 -135 102.5z" />
<glyph unicode="&#x2014;" d="M86 571.5q0 102.5 135 102.5h787q135 0 135 -102.5t-135 -102.5h-787q-135 0 -135 102.5z" />
<glyph unicode="&#x2018;" d="M483 1325h246l129 -584q2 -8 2 -22q0 -41 -28.5 -72t-69.5 -31q-35 0 -64.5 23t-38.5 57z" />
<glyph unicode="&#x2019;" d="M358 719q0 14 2 22l132 584h245l-176 -629q-10 -35 -39.5 -57.5t-64.5 -22.5q-41 0 -70 31t-29 72z" />
<glyph unicode="&#x201c;" d="M260 1325h246l129 -584q2 -8 2 -22q0 -41 -28.5 -72t-69.5 -31q-35 0 -66 23t-39 57zM707 1325h245l131 -584q2 -8 2 -22q0 -41 -28.5 -72t-71.5 -31q-35 0 -64.5 23t-37.5 57z" />
<glyph unicode="&#x201d;" d="M135 719q0 14 2 22l131 584h246l-178 -629q-8 -35 -38 -57.5t-65 -22.5q-41 0 -69.5 31t-28.5 72zM582 719q0 14 2 22l131 584h246l-177 -629q-10 -35 -39.5 -57.5t-64.5 -22.5q-41 0 -69.5 31t-28.5 72z" />
<glyph unicode="&#x2022;" d="M246 449q0 152 108.5 260t260 108t260 -108.5t108.5 -259.5q0 -154 -108.5 -261.5t-260 -107.5t-260 107.5t-108.5 261.5z" />
<glyph unicode="&#x2026;" d="M51 104.5q0 55.5 40 95.5t95 40h37q57 0 96 -39t39 -96.5t-38.5 -96.5t-96.5 -39h-37q-55 0 -95 40t-40 95.5zM461 104.5q0 55.5 40 95.5t95 40h37q57 0 96 -39t39 -96.5t-39 -96.5t-96 -39h-37q-55 0 -95 40t-40 95.5zM870 104.5q0 55.5 40 95.5t96 40h36q57 0 96.5 -39 t39.5 -96.5t-39 -96.5t-97 -39h-36q-55 0 -95.5 40t-40.5 95.5z" />
<glyph unicode="&#x202f;" horiz-adv-x="284" />
<glyph unicode="&#x205f;" horiz-adv-x="354" />
<glyph unicode="&#x20ac;" d="M8 477.5q0 57.5 55 57.5h58v86h-58q-55 0 -55 57t55 57h64q25 213 165 350.5t333 137.5q127 0 260 -70l18 -8q35 49 78 49q92 0 92 -135v-172q0 -135 -92 -135q-78 0 -92 108q-8 66 -85 112t-171 46q-106 0 -181 -76t-98 -207h400q57 0 57 -57t-57 -57h-408v-86h352 q55 0 55.5 -57.5t-55.5 -57.5h-342q51 -244 295 -244q92 0 160 46t78 112q14 109 92 108q92 0 92 -135v-172q0 -135 -92 -135q-43 0 -78 49l-18 -14q-141 -63 -234 -64q-211 0 -350 121t-174 328h-64q-55 0 -55 57.5z" />
<glyph unicode="&#x2122;" d="M133 1038v156h492v-156q0 -47 -52 -47q-49 0 -49 47v54h-94v-246h57q66 0 66 -51.5t-66 -51.5h-217q-66 0 -65.5 51.5t65.5 51.5h58v246h-92v-54q0 -47 -51.5 -47t-51.5 47zM690 795q0 49 58 51v246q-49 6 -50 51q0 51 64 51h104q2 0 2 -2l129 -211l125 211v2h105 q66 0 65 -51q0 -45 -49 -51v-246q57 -2 57 -51q0 -51 -65 -52h-123q-66 0 -65.5 51.5t65.5 51.5h29v170l-99 -172h-86l-106 172v-170h29q66 0 65.5 -51.5t-65.5 -51.5h-121q-68 1 -68 52z" />
<glyph unicode="&#xe000;" horiz-adv-x="895" d="M0 895h895v-895h-895v895z" />
<glyph unicode="&#xfb01;" d="M-29 102.5q0 102.5 138 102.5h86v485h-78q-137 0 -137 102.5t137 102.5h78v80q0 127 80.5 214t197.5 87q104 0 176 -35t72 -96q0 -43 -29.5 -74t-70.5 -31q-8 0 -65.5 16.5t-76.5 16.5q-33 0 -56.5 -29.5t-23.5 -68.5v-80h660v-690h74q135 0 135 -102.5t-135 -102.5h-357 q-137 0 -137 102.5t137 102.5h78v485h-455v-485h68q135 0 135 -102.5t-135 -102.5h-358q-138 0 -138 102.5zM834 1188q0 51 35.5 87t87 36t87 -36t35.5 -89q0 -49 -35.5 -85t-87 -36t-87 36t-35.5 87z" />
<glyph unicode="&#xfb02;" d="M-35 102.5q0 102.5 135 102.5h88v485h-75q-137 0 -137.5 102.5t137.5 102.5h75v78q0 125 80 214t193 89h590v-1071h75q137 0 137.5 -102.5t-137.5 -102.5h-358q-137 0 -137 102.5t137 102.5h78v866h-371q-82 0 -82 -98v-78h68q135 0 135 -102.5t-135 -102.5h-68v-485h68 q135 0 135 -102.5t-135 -102.5h-361q-135 0 -135 102.5z" />
<glyph unicode="&#xfb03;" horiz-adv-x="3686" d="M2585 102.5q0 102.5 135 102.5h250v485h-160q-137 0 -137 102.5t137 102.5h365v-690h250q135 0 135 -102.5t-135 -102.5h-705q-135 0 -135 102.5zM2950 1188q0 51 35.5 87t87 36t87 -36t35.5 -89q0 -49 -35.5 -85t-87 -36t-87 36t-35.5 87zM1383 102.5q0 102.5 135 102.5 h119v485h-97q-135 0 -135 102.5t137 102.5h95v76q0 141 106.5 223t288.5 82q367 0 366 -129q0 -45 -27.5 -75t-68.5 -30q-20 0 -132 14.5t-157 14.5q-172 0 -172 -100v-76h310q135 0 135 -102.5t-135 -102.5h-310v-485h285q135 0 135 -102.5t-135 -102.5h-608 q-135 0 -135 102.5zM154 102.5q0 102.5 135 102.5h119v485h-97q-135 0 -135 102.5t137 102.5h95v76q0 141 106.5 223t288.5 82q367 0 366 -129q0 -45 -27.5 -75t-68.5 -30q-20 0 -132 14.5t-157 14.5q-172 0 -172 -100v-76h310q135 0 135 -102.5t-135 -102.5h-310v-485h285 q135 0 135 -102.5t-135 -102.5h-608q-135 0 -135 102.5z" />
<glyph unicode="&#xfb04;" horiz-adv-x="3686" d="M2585 102.5q0 102.5 135 102.5h250v868h-160q-137 0 -137 102.5t137 102.5h365v-1073h250q135 0 135 -102.5t-135 -102.5h-705q-135 0 -135 102.5zM1383 102.5q0 102.5 135 102.5h119v485h-97q-135 0 -135 102.5t137 102.5h95v76q0 141 106.5 223t288.5 82 q367 0 366 -129q0 -45 -27.5 -75t-68.5 -30q-20 0 -132 14.5t-157 14.5q-172 0 -172 -100v-76h310q135 0 135 -102.5t-135 -102.5h-310v-485h285q135 0 135 -102.5t-135 -102.5h-608q-135 0 -135 102.5zM154 102.5q0 102.5 135 102.5h119v485h-97q-135 0 -135 102.5 t137 102.5h95v76q0 141 106.5 223t288.5 82q367 0 366 -129q0 -45 -27.5 -75t-68.5 -30q-20 0 -132 14.5t-157 14.5q-172 0 -172 -100v-76h310q135 0 135 -102.5t-135 -102.5h-310v-485h285q135 0 135 -102.5t-135 -102.5h-608q-135 0 -135 102.5z" />
</font>
</defs>
</svg>
