<?xml version="1.0" standalone="no"?>
<!DOCTYPE svg PUBLIC "-//W3C//DTD SVG 1.1//EN" "http://www.w3.org/Graphics/SVG/1.1/DTD/svg11.dtd" >
<svg xmlns="http://www.w3.org/2000/svg">
<metadata>
This is a custom SVG webfont generated by Font Squirrel.
Copyright   : Copyright URW copyright 1999 by URW Design  Development Cyrillic glyphs added by Valek Filippov copyright 20012002 Vietnamese characters were added by Han The Thanh copyright 2006 2008 for TeX Gyre extensions by B Jackowski and JM Nowacki on behalf of TeX users groups This work is released under the GUST Font License   see httptugorgfontslicensesGUSTFONTLICENSEtxt for details
</metadata>
<defs>
<font id="webfontqufM9ScK" horiz-adv-x="1228" >
<font-face units-per-em="2048" ascent="1628" descent="-420" />
<missing-glyph horiz-adv-x="500" />
<glyph unicode=" " />
<glyph unicode="!" d="M479 78q0 61 52.5 111.5t115.5 50.5h35q49 0 80 -30t31 -77q0 -63 -51.5 -113.5t-116.5 -50.5h-35q-49 0 -80 31t-31 78zM610 449l2 18l70 608q14 121 71.5 176.5t137.5 55.5q59 0 97 -35t38 -90q0 -37 -22 -107l-189 -608q-33 -100 -123 -100q-82 0 -82 82z" />
<glyph unicode="&#x22;" d="M502 774q0 23 2 33l76 453h245l-116 -453q-12 -55 -49 -95t-82 -40q-76 0 -76 102zM860 774q0 23 2 33l76 453h246l-117 -453q-14 -55 -50 -95t-81 -40q-76 0 -76 102z" />
<glyph unicode="#" d="M207 367q0 51 39 85.5t121 34.5h67l62 218h-41q-63 0 -90 18t-27 63q0 51 39 87t121 36h55l96 344q37 129 133 129q33 0 57.5 -22.5t24.5 -52.5q0 -20 -12 -68l-94 -330h147l96 344q23 74 54.5 101.5t79.5 27.5q35 0 58.5 -23.5t23.5 -58.5q0 -10 -15 -61l-94 -330h51 q63 0 90 -17.5t27 -64.5q0 -51 -39 -86.5t-121 -35.5h-65l-62 -218h39q119 0 119 -79q0 -53 -42 -88t-120 -35h-53l-96 -344q-41 -129 -136 -129q-33 0 -56 22.5t-23 54.5q0 16 14 66l94 330h-147l-99 -344q-29 -129 -131 -129q-35 0 -58.5 22.5t-23.5 54.5q0 25 13 66 l94 330h-53q-63 0 -90 18.5t-27 63.5zM639 487h145l64 218h-148z" />
<glyph unicode="$" d="M205 147q0 27 8 60l27 125q29 137 133 137q39 0 59.5 -19.5t22.5 -80.5q2 -47 65.5 -81t151.5 -34q109 0 187.5 54t78.5 130t-141 105l-144 30q-252 53 -252 252q0 137 107.5 249t265.5 138l12 54q31 135 132 135q35 0 57 -22.5t22 -55.5q0 -18 -8 -57l-12 -54 q8 -2 22.5 -4t24.5 -4l20 -6q29 -14 64 -22q35 14 59 14q35 0 58.5 -21.5t23.5 -54.5q0 -27 -8 -59l-14 -66q-29 -135 -131 -135q-45 0 -63.5 24.5t-23.5 55.5t-43 55.5t-116 24.5q-100 0 -166 -41t-66 -105q0 -66 132 -96l127 -29q152 -35 215 -94t63 -168 q0 -156 -116.5 -273.5t-307.5 -152.5l-37 -170q-31 -137 -129 -137q-35 0 -58.5 21.5t-23.5 54.5q0 27 9 61l36 170q-90 20 -151 51q-49 -37 -88 -36q-37 0 -60.5 21t-23.5 56z" />
<glyph unicode="%" d="M268 481q0 53 76 76l793 242q27 8 43 8q47 0 47 -53.5t-76 -75.5l-795 -242q-23 -8 -43 -8t-32.5 15t-12.5 38zM385 920q0 133 108.5 239.5t243.5 106.5q102 0 167 -63.5t65 -166.5q0 -133 -108.5 -238.5t-248.5 -105.5q-98 0 -162.5 65t-64.5 163zM518 197 q0 131 108.5 237.5t243.5 106.5q102 0 167 -63.5t65 -164.5q0 -133 -108.5 -238.5t-248.5 -105.5q-98 0 -162.5 65t-64.5 163zM520 948q0 -53 35 -88t88 -35q74 0 132.5 56.5t58.5 128.5q0 53 -35 86.5t-90 33.5q-72 0 -130.5 -56t-58.5 -126zM655 223q0 -51 35 -86t86 -35 q74 0 132.5 56.5t58.5 126.5q0 55 -35 89t-90 34q-72 0 -129.5 -57.5t-57.5 -127.5z" />
<glyph unicode="&#x26;" d="M209 217q0 123 72.5 230.5t201.5 173.5q-35 88 -34 145q0 131 121.5 245.5t260.5 114.5q68 0 138 -34q35 14 61 14q31 0 54.5 -24.5t23.5 -55.5q0 -43 -23.5 -71.5t-85.5 -57.5l-96 -45q-59 70 -115 70q-49 0 -90 -37t-41 -82q-2 -20 35 -101l142 -296l84 167h106 q117 0 117 -79q0 -47 -34 -84t-79 -41q-51 -109 -96 -164h16q63 0 90 -18.5t27 -63.5q0 -53 -41 -88t-119 -35h-125l-16 31q-96 -59 -241.5 -59.5t-229.5 65t-84 180.5zM418 264q0 -88 145 -88q63 0 119 29l-119 246q-145 -64 -145 -187z" />
<glyph unicode="'" d="M680 772q0 10 4 35l76 453h246l-117 -453q-14 -55 -50 -95t-81 -40q-39 0 -58.5 28.5t-19.5 71.5z" />
<glyph unicode="(" d="M623 268q0 410 342 852q82 104 122.5 139t83.5 35q37 0 60.5 -22.5t23.5 -57.5q0 -41 -41 -90q-188 -227 -275 -427.5t-87 -409.5q0 -203 92 -430q12 -29 12 -45q0 -49 -38.5 -87t-88.5 -38q-51 0 -71 39q-57 96 -96 251.5t-39 290.5z" />
<glyph unicode=")" d="M193 -233q0 41 40 90q193 231 278 428.5t85 410.5q0 197 -92 428q-12 27 -12 45q0 49 37.5 87t88.5 38q47 0 72 -39q57 -96 96 -252.5t39 -289.5q0 -213 -80.5 -416t-261.5 -436q-80 -102 -122 -138t-85 -36q-37 0 -60 22.5t-23 57.5z" />
<glyph unicode="*" d="M365 903q0 47 37.5 86t84.5 39q35 -4 64 -14l164 -58l39 183q29 135 131 135q35 0 58.5 -22.5t23.5 -55.5q0 -23 -9 -57l-38 -183l188 58q33 10 72 14q33 0 55 -23.5t22 -58.5q0 -88 -127 -127l-188 -57l76 -146q23 -45 22 -69q0 -45 -39.5 -83t-87.5 -38q-31 0 -49 14.5 t-39 55.5l-73 147l-140 -147q-39 -43 -61.5 -56.5t-52.5 -13.5q-37 0 -60.5 23.5t-23.5 58.5q0 43 59 108l137 146l-164 57q-47 16 -64 33.5t-17 50.5z" />
<glyph unicode="+" d="M129 512q0 43 29.5 72.5t72.5 29.5h379v379q0 43 30 73t73 30t72.5 -30t29.5 -73v-379h379q43 0 72.5 -29.5t29.5 -72.5t-29.5 -72.5t-72.5 -29.5h-379v-379q0 -43 -29.5 -73t-72.5 -30t-73 30t-30 73v379h-379q-43 0 -72.5 29.5t-29.5 72.5z" />
<glyph unicode="," d="M215 -293q0 20 8 37l256 584h246l-299 -631q-37 -74 -113 -74q-45 0 -71.5 23.5t-26.5 60.5z" />
<glyph unicode="-" d="M207 551q0 51 40 87t120 36h784q61 0 89 -18.5t28 -61.5q0 -53 -40 -89t-120 -36h-784q-63 0 -90 18.5t-27 63.5z" />
<glyph unicode="." d="M479 78q0 61 52.5 111.5t115.5 50.5h35q49 0 80 -30t31 -77q0 -63 -51.5 -113.5t-116.5 -50.5h-35q-49 0 -80 31t-31 78z" />
<glyph unicode="/" d="M141 -152q0 35 43 97l953 1388q35 51 61.5 70.5t63.5 19.5q35 0 58 -22.5t23 -57.5q0 -33 -40 -94l-953 -1390q-35 -51 -61.5 -70.5t-63.5 -19.5q-35 0 -59.5 23t-24.5 56z" />
<glyph unicode="0" d="M266 367q0 88 19 174l41 194q51 244 202.5 408t364.5 164q164 0 252 -103.5t88 -294.5q0 -88 -19 -174l-40 -194q-51 -244 -204 -408t-364 -164q-164 0 -252 104t-88 294zM473 414q0 -115 45 -177.5t133 -62.5q109 0 195 96.5t119 255.5l47 224q14 72 14 127 q0 106 -47 165.5t-131 59.5q-109 0 -195 -96.5t-121 -255.5l-45 -224q-14 -63 -14 -112z" />
<glyph unicode="1" d="M190 82q0 51 40 87t120 36h207l176 837l-186 -47q-51 -12 -70 -12q-33 0 -53.5 22.5t-20.5 59.5q0 51 31 81t103 48l458 113l-235 -1102h207q61 0 88.5 -18.5t27.5 -61.5q0 -53 -41 -89t-118 -36h-617q-63 0 -90 19.5t-27 62.5z" />
<glyph unicode="2" d="M111 0l45 215l561 401q203 156 255 213.5t52 123t-56.5 107.5t-142.5 42q-94 0 -161.5 -41t-120.5 -137q-31 -59 -105 -60q-35 0 -59.5 22.5t-24.5 55.5q0 117 167 241t351 124q160 0 260.5 -88.5t100.5 -227.5q0 -150 -105 -270q-104 -117 -407 -334l-254 -182h414 q31 111 125 110q35 0 58 -22.5t23 -54.5l-8 -58l-39 -180h-929z" />
<glyph unicode="3" d="M164 119q0 51 38 89t89 38q27 0 59 -25q61 -47 236 -47q186 0 280.5 64.5t94.5 173.5q0 74 -70 121t-201 55q-88 2 -88 76q0 47 39 83.5t90 36.5h84q86 0 154.5 59.5t68.5 133.5q0 57 -53 91t-145 34q-86 0 -141.5 -20.5t-116.5 -73.5q-35 -31 -78 -31q-35 0 -58.5 23.5 t-23.5 56.5q0 96 147.5 173t327.5 77q162 0 256 -80t94 -213q0 -201 -235 -326l-15 -6q172 -94 172 -250q0 -74 -44 -162t-113 -151q-86 -80 -194.5 -115t-268.5 -35q-172 0 -278.5 42t-106.5 108z" />
<glyph unicode="4" d="M213 283l37 170l668 821h268l-168 -787q106 0 106 -81q0 -49 -40 -86t-109 -37l-17 -78q106 0 107 -82q0 -51 -41 -87t-121 -36h-270q-63 0 -90 19.5t-27 62.5q0 51 40 87t120 36h78l16 78h-557zM508 487h305l107 496z" />
<glyph unicode="5" d="M170 147q0 49 39 87t88 38q35 0 65 -30q39 -39 90.5 -53.5t151.5 -14.5q184 0 277.5 82t93.5 227q0 82 -49 131.5t-133 49.5q-109 0 -265 -70q-39 -16 -59 -16q-35 0 -58.5 22.5t-23.5 54.5q0 8 4 37l125 582h617q61 0 88.5 -18.5t27.5 -61.5q0 -53 -40 -89t-119 -36 h-414l-49 -235q123 35 213 34q156 0 250 -95t94 -251q0 -203 -135 -360q-88 -100 -203 -146.5t-285 -46.5q-168 0 -279.5 51t-111.5 127z" />
<glyph unicode="6" d="M315 369q0 309 158 538q119 172 303.5 286t368.5 114q96 0 154.5 -31t58.5 -82q0 -47 -40 -86t-89 -39q-10 0 -54.5 13.5t-62.5 13.5q-164 0 -316.5 -123t-230.5 -309q170 143 312 143q133 0 223 -91t90 -229q0 -213 -150.5 -365.5t-367.5 -152.5q-357 1 -357 400z M535 397q0 -109 43 -166t143 -57q111 0 184.5 81t73.5 183q0 70 -45 117t-112.5 47t-146.5 -48t-138 -126q-2 -15 -2 -31z" />
<glyph unicode="7" d="M377 1036q0 23 8 58l39 180h887l-43 -203l-533 -973q-55 -100 -131 -100q-33 0 -58.5 23.5t-25.5 54.5q0 29 33 90l498 903h-467q-31 -111 -125 -111q-35 0 -58.5 22.5t-23.5 55.5z" />
<glyph unicode="8" d="M233 264q0 238 275 389q-129 100 -129 226q0 160 157.5 294t354.5 134q156 0 255 -86t99 -220q0 -203 -248 -348q141 -98 142 -247q0 -176 -154 -306.5t-381 -130.5q-172 0 -271.5 79t-99.5 216zM446 324q0 -70 55.5 -110t149.5 -40q117 0 200 61.5t83 147.5 q0 68 -57.5 112t-145.5 44q-115 0 -200 -64.5t-85 -150.5zM584 887q0 -63 51 -102.5t135 -39.5q109 0 186.5 61.5t77.5 147.5q0 70 -50 109t-138 39q-111 0 -186.5 -62.5t-75.5 -152.5z" />
<glyph unicode="9" d="M236 82q0 47 39.5 86t89.5 39q10 0 54 -13.5t62 -13.5q164 0 317.5 124t229.5 308q-168 -143 -311 -143q-133 0 -223.5 91t-90.5 228q0 213 151 366t368 153q356 0 356 -400q-4 -315 -158 -538q-117 -172 -302 -286t-369 -114q-96 0 -154.5 31t-58.5 82zM614 836 q0 -70 45.5 -116t113 -46t146 48t138.5 126l2 29q0 111 -42 168t-145 57q-111 0 -184.5 -81t-73.5 -185z" />
<glyph unicode=":" d="M479 78q0 61 52.5 111.5t115.5 50.5h35q49 0 80 -30t31 -77q0 -63 -51.5 -113.5t-116.5 -50.5h-35q-49 0 -80 31t-31 78zM618 731q0 63 51.5 113.5t116.5 50.5h35q49 0 80 -30.5t31 -78.5q0 -63 -51.5 -113t-116.5 -50h-35q-49 0 -80 30.5t-31 77.5z" />
<glyph unicode=";" d="M297 -293q0 20 8 37l256 584h246l-299 -631q-37 -74 -113 -74q-45 0 -71.5 23.5t-26.5 60.5zM618 731q0 63 51.5 113.5t116.5 50.5h35q49 0 80 -30.5t31 -78.5q0 -63 -51.5 -113t-116.5 -50h-35q-49 0 -80 30.5t-31 77.5z" />
<glyph unicode="&#x3c;" d="M262 512q0 59 53 90l697 383q20 12 49 12q43 0 72.5 -29.5t29.5 -72.5q0 -59 -53 -90l-532 -293l532 -293q53 -31 53 -90q0 -43 -29.5 -72.5t-72.5 -29.5q-29 0 -49 12l-697 383q-53 31 -53 90z" />
<glyph unicode="=" d="M129 313q0 41 29.5 72t72.5 31h963q43 0 72.5 -31t29.5 -72q0 -43 -29.5 -72.5t-72.5 -29.5h-963q-43 0 -72.5 29.5t-29.5 72.5zM129 711q0 43 29.5 72.5t72.5 29.5h963q43 0 72.5 -29.5t29.5 -72.5q0 -41 -29.5 -72t-72.5 -31h-963q-43 0 -72.5 31t-29.5 72z" />
<glyph unicode="&#x3e;" d="M262 129q0 59 53 90l533 293l-533 293q-53 31 -53 90q0 43 30 72.5t73 29.5q29 0 49 -12l696 -383q53 -31 53 -90t-53 -90l-696 -383q-20 -12 -49 -12q-43 0 -73 29.5t-30 72.5z" />
<glyph unicode="?" d="M403 883q0 25 9 59l34 162q168 72 257.5 96.5t189.5 24.5q164 0 258 -81t94 -222q0 -162 -98 -263.5t-326 -191.5q-37 -111 -127 -111q-33 0 -57.5 22.5t-24.5 53.5q0 20 11 60l22 114q231 82 311 137.5t80 133.5q0 68 -49 105.5t-137 37.5q-117 0 -227 -49l-7 -29 q-29 -135 -131 -135q-35 0 -58.5 21.5t-23.5 54.5zM483 78q0 61 52.5 111.5t115.5 50.5h37q47 0 78 -30t31 -77q0 -63 -51.5 -113.5t-114.5 -50.5h-37q-49 0 -80 31t-31 78z" />
<glyph unicode="@" d="M201 121q0 100 20 194l74 347q57 264 224 436t368 172q139 0 222 -82t83 -219q0 -39 -10 -90l-123 -576q35 -16 35 -53q0 -43 -33 -73t-100 -30h-150q-123 0 -198.5 70t-75.5 184q0 158 137 279t334 135l12 64q6 31 6 59q0 78 -46 124t-126 46q-129 0 -243.5 -131 t-155.5 -328l-68 -319q-20 -90 -20 -170q0 -311 225 -312q147 0 225 66q43 35 72 35t47 -18.5t18 -47.5q0 -78 -121.5 -136t-281.5 -58q-176 0 -263 114.5t-87 317.5zM702 432q0 -51 40 -85t104 -34q27 0 55 4l70 330q-115 -10 -192 -71.5t-77 -143.5z" />
<glyph unicode="A" d="M-23 82q0 51 41 87t121 36l484 784h-129q-63 0 -90 18.5t-27 63.5q0 51 39 87t121 36h442l199 -989q63 0 90.5 -18.5t27.5 -63.5q0 -53 -41 -88t-118 -35h-285q-61 0 -88 18.5t-27 63.5q0 51 40 87t120 36h47l-22 119h-488l-74 -119h48q63 0 89.5 -18.5t26.5 -63.5 q0 -51 -40 -87t-119 -36h-271q-63 0 -90 18.5t-27 63.5zM559 528h322l-78 394z" />
<glyph unicode="B" d="M45 82q0 51 39 87t121 36h31l165 784h-30q-63 0 -89 18.5t-26 63.5q0 49 38 86t122 37h516q154 0 246 -78t92 -198q0 -170 -187 -293q162 -88 162 -238q0 -158 -139 -272.5t-340 -114.5h-604q-63 0 -90 19.5t-27 62.5zM440 205h359q231 0 237 155q-4 57 -73.5 96.5 t-184.5 39.5h-276zM545 700h231q123 0 205 55.5t84 147.5q-4 37 -53 61.5t-133 24.5h-273z" />
<glyph unicode="C" d="M164 399q0 63 41 246q53 246 247.5 412t432.5 166q143 0 276 -70l19 -8q49 49 96 49q35 0 58.5 -22.5t23.5 -55.5q0 -23 -8 -57l-37 -172q-29 -135 -131 -135q-37 0 -59.5 22.5t-20.5 56.5l2 39q2 57 -75 102.5t-179 45.5q-158 0 -282 -105.5t-158 -267.5 q-37 -178 -37 -207q0 -121 91 -191.5t247 -70.5q164 0 237 47q160 102 172 103q35 0 59.5 -25t24.5 -59q0 -70 -86 -133.5t-211 -100.5t-243 -37q-227 0 -363.5 116.5t-136.5 311.5z" />
<glyph unicode="D" d="M47 82q0 49 40 86t110 37l165 784q-104 0 -104 82q0 51 38 87t122 36h436q188 0 304 -121t116 -317q0 -66 -35 -228q-47 -233 -228.5 -380.5t-426.5 -147.5h-420q-63 0 -90 19.5t-27 62.5zM401 205h226q164 0 269 86t140 244q29 143 29 182q0 121 -69.5 196.5 t-202.5 75.5h-226z" />
<glyph unicode="E" d="M47 82q0 51 40 87t120 36h31l165 784h-30q-63 0 -90 18.5t-27 63.5q0 51 39 87t123 36h917l-65 -307q-31 -137 -131 -137q-35 0 -58.5 22.5t-23.5 54.5q0 25 8 60l22 102h-479l-61 -289h174q16 78 53 115t80 37q35 0 58.5 -22.5t23.5 -55.5q0 -18 -8 -59l-51 -232 q-31 -135 -129 -135q-35 0 -58.5 21.5t-23.5 54.5q0 16 12 74h-174l-62 -293h523l24 106q25 137 129 138q35 0 59.5 -21.5t24.5 -54.5q-6 -55 -8 -62l-68 -311h-962q-117 0 -117 82z" />
<glyph unicode="F" d="M47 82q0 51 40 87t120 36h31l165 784h-30q-63 0 -90 18.5t-27 63.5q0 51 39 87t123 36h962l-65 -309q-31 -135 -131 -135q-35 0 -58.5 21.5t-23.5 53.5q0 14 8 60l23 104h-525l-61 -289h172q14 74 52 112t83 38q35 0 58.5 -22.5t23.5 -55.5q0 -27 -10 -57l-49 -232 q-29 -137 -132 -137q-35 0 -57 21.5t-22 54.5q0 8 12 76h-174l-62 -293h203q63 0 90 -18.5t27 -61.5q0 -53 -41 -89t-119 -36h-438q-63 0 -90 19.5t-27 62.5z" />
<glyph unicode="G" d="M162 377q0 47 45 272q49 240 249.5 407t452.5 167q168 0 285 -66q43 66 96 66q33 0 54.5 -21.5t21.5 -54.5q0 -20 -8 -60l-35 -159q-31 -135 -131 -135q-41 0 -57.5 18t-20.5 90q-4 53 -69.5 85t-178.5 32q-170 0 -295 -101.5t-159 -267.5q-41 -201 -41 -241 q0 -111 86 -171.5t243 -60.5q141 0 271 51l28 142h-202q-63 0 -90 18.5t-27 63.5q0 51 39 86.5t121 35.5h358q61 0 89 -18t28 -61q0 -94 -111 -125l-57 -271q-154 -74 -254 -100.5t-223 -26.5q-233 0 -370.5 99.5t-137.5 306.5z" />
<glyph unicode="H" d="M66 82q0 51 38.5 87t120.5 36h13l165 784q-86 6 -86 82q0 51 39 87t121 36h205q63 0 90 -17.5t27 -62.5q0 -55 -41 -90t-119 -35h-31l-61 -291h438l62 291h-31q-61 0 -88 18.5t-27 63.5q0 49 38 86t122 37h205q63 0 89.5 -17.5t26.5 -62.5q0 -51 -36.5 -86t-94.5 -39 l-166 -784h13q61 0 87.5 -18.5t26.5 -63.5q0 -51 -39.5 -87t-117.5 -36h-248q-63 0 -90 18.5t-27 63.5q0 51 40 87t120 36h31l61 289h-438l-62 -289h29q63 0 90 -18.5t27 -63.5q0 -51 -40 -87t-120 -36h-248q-61 0 -87.5 18.5t-26.5 63.5z" />
<glyph unicode="I" d="M190 82q0 51 40 87t120 36h207l166 784h-207q-63 0 -89 18.5t-26 63.5q0 51 40 87t120 36h617q61 0 88.5 -18.5t27.5 -61.5q0 -53 -41 -89t-118 -36h-207l-166 -784h205q63 0 89.5 -17.5t26.5 -62.5q0 -53 -39.5 -89t-119.5 -36h-617q-63 0 -90 18.5t-27 63.5z" />
<glyph unicode="J" d="M131 104l70 332q29 137 133 137q35 0 58.5 -21.5t23.5 -53.5q0 -10 -8 -62l-43 -196q129 -63 225 -64q117 0 211 74q41 31 53 56.5t29 99.5l125 583h-244q-63 0 -90 18.5t-27 63.5q0 51 39 87t121 36h565q63 0 90 -18.5t27 -63.5q0 -51 -40 -87t-120 -36h-117l-129 -606 q-37 -178 -193.5 -295t-344.5 -117q-172 0 -414 133z" />
<glyph unicode="K" d="M45 82q0 51 40 87t120 36h31l165 784h-30q-63 0 -89 18.5t-26 63.5q0 51 38 87t122 36h305q63 0 90 -18.5t27 -63.5q0 -51 -40 -87t-120 -36h-72l-63 -305l430 313q-47 18 -47 68q0 55 40 92t119 37h207q61 0 88 -18.5t27 -61.5q0 -51 -40 -88t-112 -37l-428 -313 q84 -49 149.5 -172t98.5 -299h66q117 0 116 -80q0 -53 -40.5 -89t-120.5 -36h-224q-27 219 -90 360.5t-151 169.5l-144 -104l-47 -221h72q61 0 88 -18.5t27 -63.5q0 -49 -40 -86t-120 -37h-305q-63 0 -90 19.5t-27 62.5z" />
<glyph unicode="L" d="M86 82q0 51 40 87t120 36h116l166 784h-114q-63 0 -90 18.5t-27 63.5q0 51 39 87t121 36h436q63 0 90 -18.5t27 -63.5q0 -53 -41 -88t-119 -35h-117l-166 -784h441l41 188q25 137 131 137q35 0 58.5 -22.5t23.5 -54.5q0 -18 -9 -60l-84 -393h-966q-63 0 -90 19.5 t-27 62.5z" />
<glyph unicode="M" d="M-20 82q0 51 40.5 87t108.5 36l166 784q-86 8 -86 82q0 51 39 87t121 36h221l153 -608l408 608h223q63 0 90 -17.5t27 -62.5q0 -49 -36 -85t-95 -40l-166 -784q104 0 104 -80q0 -53 -40.5 -89t-118.5 -36h-265q-63 0 -89.5 18.5t-26.5 63.5q0 51 40 87t120 36h71l125 592 l-336 -514h-186l-133 514l-125 -592h72q61 0 87.5 -18.5t26.5 -61.5q0 -53 -41 -89t-119 -36h-264q-63 0 -89.5 18.5t-26.5 63.5z" />
<glyph unicode="N" d="M43 82q0 49 40 86t110 37l165 784h-30q-63 0 -89 18.5t-26 63.5q0 51 39 87t121 36h233l359 -803l127 598h-72q-63 0 -89 18.5t-26 63.5q0 51 39 87t119 36h266q63 0 90 -18.5t27 -63.5q0 -51 -40 -87t-110 -36l-211 -989h-200l-361 807l-127 -602h72q61 0 88 -17.5 t27 -62.5q0 -53 -40 -89t-120 -36h-264q-63 0 -90 18.5t-27 63.5z" />
<glyph unicode="O" d="M154 451q0 299 225 535.5t493 236.5q197 0 327 -135.5t130 -337.5q0 -303 -225 -541t-496 -238q-195 0 -324.5 137.5t-129.5 342.5zM365 498q0 -139 80.5 -230.5t203.5 -91.5q180 0 324.5 162t144.5 362q0 137 -82 227.5t-207 90.5q-176 0 -320 -161.5t-144 -358.5z" />
<glyph unicode="P" d="M47 82q0 51 39 87t121 36h31l165 784h-30q-63 0 -90 18.5t-27 63.5q0 51 39 87t121 36h477q172 0 271.5 -83t99.5 -228q0 -154 -121 -291q-88 -98 -192.5 -140t-264.5 -42h-201l-43 -205h201q61 0 89 -18.5t28 -61.5q0 -53 -40 -89t-120 -36h-436q-63 0 -90 19.5 t-27 62.5zM528 614h242q121 0 196.5 65.5t75.5 168.5q0 66 -51 103.5t-141 37.5h-242z" />
<glyph unicode="Q" d="M154 451q0 195 102 374t269 288.5t349 109.5q197 0 326 -136.5t129 -343.5q0 -178 -93 -351t-268 -289.5t-382 -116.5l-35 2l-16 -49q63 10 104 10t136 -20.5t114 -20.5q25 0 100.5 32.5t83.5 32.5q37 0 60.5 -22.5t23.5 -56.5q0 -55 -59.5 -101.5t-129 -68t-122.5 -21.5 q-55 0 -150 41q-41 16 -92 16q-29 0 -165 -26.5t-165 -26.5q-33 0 -55 23.5t-22 56.5q0 55 59 104l154 123q-154 100 -205 197t-51 240zM362 496q0 -137 82 -229.5t205 -92.5q180 0 324.5 162t144.5 364q0 137 -82 227.5t-207 90.5q-176 0 -321.5 -161.5t-145.5 -360.5z" />
<glyph unicode="R" d="M47 82q0 51 40 87t120 36h31l165 784h-30q-63 0 -89 18.5t-26 63.5q0 51 38 87t122 36h456q176 0 277.5 -79t101.5 -218q0 -231 -292 -377q106 -115 188 -315h27q66 0 91 -18.5t25 -63.5q0 -49 -40 -86t-119 -37h-160q-47 152 -134 292t-147 163h-196l-54 -250h72 q61 0 88 -18.5t27 -63.5q0 -49 -40 -86t-120 -37h-305q-63 0 -90 18.5t-27 63.5zM539 659h155q139 0 238.5 58.5t99.5 142.5q0 57 -53 93t-141 36h-230z" />
<glyph unicode="S" d="M147 78q0 10 9 59l28 135q27 135 133 136q39 0 57.5 -17.5t22.5 -81.5q4 -55 80 -94t176 -39q127 0 218.5 52.5t91.5 125.5q0 25 -4.5 37t-26 32.5t-77.5 38t-148 34.5q-199 37 -282 104.5t-83 187.5q0 178 155.5 306.5t372.5 128.5q160 0 252 -68q43 68 95 68 q37 0 59 -20.5t22 -53.5q0 -4 -1 -13.5t-2 -20.5t-5 -28l-39 -180q-31 -137 -131 -137q-27 0 -41 4t-26.5 29.5t-12.5 77.5q0 61 -58 99t-155 38q-109 0 -188.5 -53.5t-79.5 -122.5q0 -49 41 -84q20 -18 54 -28.5t153 -33.5q203 -39 288 -102.5t85 -185.5 q0 -188 -158 -312.5t-395 -124.5q-168 0 -303 80q-55 -49 -95 -49q-35 0 -58.5 21.5t-23.5 54.5z" />
<glyph unicode="T" d="M248 739q0 27 8 60l84 395h1057l-84 -395q-29 -135 -131 -135q-35 0 -58.5 21.5t-23.5 53.5q0 25 8 60l41 190h-223l-168 -784h135q61 0 89 -18.5t28 -61.5q0 -53 -41 -89t-119 -36h-473q-115 0 -115 82q0 51 40 87t120 36h131l168 784h-219l-41 -190q-31 -135 -131 -135 q-33 0 -57.5 22t-24.5 53z" />
<glyph unicode="U" d="M225 324q0 53 11 96l120 569q-104 0 -104 82q0 51 39 87t121 36h266q61 0 88 -18.5t27 -61.5q0 -53 -40 -89t-120 -36h-72l-125 -588q-4 -29 -4 -41q0 -80 62.5 -132t158.5 -52q109 0 200 65.5t112 159.5l125 588h-72q-63 0 -89 18.5t-26 63.5q0 51 38 87t122 36h264 q63 0 90 -17.5t27 -62.5q0 -53 -41 -89t-109 -36l-120 -569q-39 -190 -202 -319.5t-362 -129.5q-168 0 -276.5 100.5t-108.5 252.5z" />
<glyph unicode="V" d="M186 1071q0 51 39 87t121 36h272q61 0 88 -17.5t27 -64.5q0 -51 -39 -87t-121 -36h-38l147 -694l444 694h-51q-61 0 -87.5 19.5t-26.5 62.5q0 51 38.5 87t120.5 36h269q63 0 89.5 -17.5t26.5 -64.5q0 -53 -41 -88t-123 -35l-630 -989h-201l-205 989h-24q-95 6 -95 82z " />
<glyph unicode="W" d="M201 0l84 989q-76 8 -76 74q0 55 39 93t121 38h270q63 0 90 -17.5t27 -64.5q0 -53 -42 -88t-120 -35h-98l-43 -557l254 463h211l57 -463l192 557h-110q-63 0 -89 18.5t-26 63.5q0 51 38 87t122 36h266q63 0 90 -17.5t27 -62.5q0 -47 -33 -81t-86 -44l-334 -989h-225 l-72 567l-307 -567h-227z" />
<glyph unicode="X" d="M39 82q0 53 40 88t103 35l428 405l-243 379q-98 2 -99 82q0 51 39 87t121 36h186q61 0 89 -17.5t28 -62.5q0 -76 -100 -123l145 -223l238 223q-35 20 -46.5 35.5t-11.5 44.5q0 51 39 87t121 36h184q63 0 90 -17.5t27 -62.5q0 -53 -40 -88t-101 -37l-402 -381l256 -403 q100 0 101 -82q0 -51 -40 -87t-120 -36h-225q-63 0 -90 18.5t-27 63.5q0 47 37 83t100 40l-155 246l-262 -246q92 -4 92 -82q0 -53 -41 -88t-119 -35h-225q-63 0 -90 18.5t-27 63.5z" />
<glyph unicode="Y" d="M262 82q0 51 40 87t120 36h135l61 297l-233 487h-12q-98 0 -99 82q0 51 40 87t120 36h184q61 0 88 -17.5t27 -62.5q0 -84 -102 -125l135 -276l252 276q-61 25 -62 82q0 49 38 86t122 37h191q61 0 87.5 -18.5t26.5 -61.5q0 -53 -40 -89t-111 -36h-6l-441 -487l-61 -297 h133q63 0 90 -18.5t27 -61.5q0 -53 -41 -89t-119 -36h-473q-63 0 -90 19.5t-27 62.5z" />
<glyph unicode="Z" d="M150 0l43 205l784 784h-365l-30 -143q-31 -135 -133 -135q-33 0 -57.5 22.5t-24.5 52.5q0 6 10 60l74 348h835l-43 -199l-788 -790h463l32 147q29 135 131 135q35 0 58.5 -22.5t23.5 -54.5q0 -18 -8 -58l-76 -352h-929z" />
<glyph unicode="[" d="M449 -303l337 1587h324q61 0 88 -18.5t27 -61.5q0 -51 -40 -88t-120 -37h-119l-250 -1177h121q61 0 89 -18.5t28 -61.5q0 -53 -40 -89t-120 -36h-325z" />
<glyph unicode="\" d="M449 1303q0 45 38.5 82.5t85.5 37.5q37 0 54.5 -18.5t31.5 -71.5l363 -1388q10 -37 10 -56q0 -45 -39 -82.5t-86 -37.5q-39 0 -56 18t-32 72l-360 1390q-12 42 -10 54z" />
<glyph unicode="]" d="M213 -223q0 51 39 88t121 37h119l249 1177h-120q-63 0 -90 17.5t-27 62.5q0 53 40 89t120 36h325l-338 -1587h-323q-61 0 -88 18.5t-27 61.5z" />
<glyph unicode="^" d="M330 748q0 47 65 110l502 477l299 -477q29 -45 29 -72q0 -45 -40 -82.5t-87 -37.5q-29 0 -45.5 11t-40.5 50l-185 285l-301 -283q-43 -41 -63.5 -52t-48.5 -11q-37 0 -60.5 23.5t-23.5 58.5z" />
<glyph unicode="_" d="M-125 -154h1280v-102h-1280v102z" />
<glyph unicode="`" d="M565 1323q6 33 35 57.5t64 24.5q25 0 43 -14l284 -230q31 -23 21 -67q-6 -33 -35 -57.5t-64 -24.5q-25 0 -43 14l-284 229q-31 23 -21 68z" />
<glyph unicode="a" d="M133 201q0 156 176 272.5t400 116.5q92 0 206 -21l11 47q2 8 2 21q0 80 -172 80q-100 0 -246 -35q-51 -12 -86 -12t-56.5 22.5t-21.5 57.5q0 74 68 104q51 25 174 46.5t209 21.5q160 0 252 -62.5t92 -169.5q0 -39 -8 -72l-89 -413h35q61 0 88 -17.5t27 -62.5 q0 -53 -40 -89t-120 -36h-239l10 47q-170 -80 -356 -80q-137 0 -226.5 67t-89.5 167zM356 242q0 -29 40 -49.5t98 -20.5q170 0 362 104l21 103q-123 23 -222 22q-104 0 -201.5 -50t-97.5 -109z" />
<glyph unicode="b" d="M4 82q0 51 39 87t121 36h33l184 868h-33q-63 0 -90 18.5t-27 63.5q0 51 39 87t121 36h238l-99 -457q152 102 326 103q203 0 311.5 -104.5t108.5 -268.5q0 -238 -184.5 -409t-434.5 -171q-162 0 -284 101l-17 -72h-237q-61 0 -88 18.5t-27 63.5zM446 395q0 -102 68 -160.5 t188 -58.5q141 0 252 97.5t111 226.5q0 96 -63.5 157.5t-192.5 61.5q-141 0 -252 -97.5t-111 -226.5z" />
<glyph unicode="c" d="M190 319q0 242 190.5 422.5t453.5 180.5q174 0 280 -62q29 61 90 62q78 0 78 -78q0 -14 -8 -58l-33 -157q-33 -135 -133 -135q-39 0 -60.5 20.5t-21.5 77.5q0 125 -238 125q-160 0 -274.5 -102.5t-114.5 -249.5q0 -193 314 -193q123 0 192.5 18.5t143.5 71.5 q33 25 67.5 25t58 -23.5t23.5 -60.5q0 -100 -164 -168t-385 -68q-231 0 -345 94t-114 258z" />
<glyph unicode="d" d="M152 344q0 238 186 409t436 171q176 0 285 -103l53 254h-33q-63 0 -89.5 17.5t-26.5 64.5q0 51 38.5 86t120.5 35h238l-227 -1073h32q61 0 88 -18.5t27 -63.5q0 -51 -40 -87t-120 -36h-237l16 72q-168 -100 -330 -101q-201 0 -309 103.5t-108 269.5zM362 395 q0 -102 68 -160.5t188 -58.5q143 0 255 96.5t112 227.5q0 98 -63.5 158.5t-196.5 60.5q-139 0 -251 -97.5t-112 -226.5z" />
<glyph unicode="e" d="M152 346q0 229 193.5 402.5t447.5 173.5q199 0 317.5 -106.5t118.5 -285.5q0 -43 -10 -98l-17 -80h-837q33 -180 301 -180q106 0 344 57q45 10 71 11q35 0 56.5 -21.5t21.5 -56.5q0 -70 -67 -105q-66 -35 -216.5 -62.5t-273.5 -27.5q-209 0 -329.5 101.5t-120.5 277.5z M410 532h604q-8 84 -80 134.5t-182 50.5q-115 0 -207 -50.5t-135 -134.5z" />
<glyph unicode="f" d="M172 82q0 51 40 87t120 36h119l102 485h-94q-66 0 -92.5 18.5t-26.5 63.5q0 51 39 87t123 36h94l16 76q31 141 155 223t308 82q340 0 340 -109q0 -47 -38 -86t-83 -39q-29 0 -134 14.5t-148 14.5q-170 0 -195 -100l-14 -76h307q63 0 90 -18.5t27 -63.5q0 -51 -40 -87 t-120 -36h-309l-103 -485h285q63 0 90 -18.5t27 -61.5q0 -53 -41 -89t-119 -36h-610q-115 0 -115 82z" />
<glyph unicode="g" d="M150 344q0 229 180 404.5t418 175.5q168 0 266 -103l14 74h240q61 0 87.5 -18.5t26.5 -63.5q0 -51 -39.5 -87t-119.5 -36h-33l-156 -731q-35 -164 -170 -271.5t-303 -107.5h-227q-63 0 -90 18.5t-27 63.5q0 51 40 87t120 36h223q88 0 150.5 47t78.5 127l25 113 q-160 -100 -311 -101q-174 0 -283.5 103.5t-109.5 269.5zM360 395q0 -96 64.5 -157.5t167.5 -61.5q135 0 241.5 99.5t106.5 224.5q0 96 -65.5 157.5t-167.5 61.5q-133 0 -240 -99.5t-107 -224.5z" />
<glyph unicode="h" d="M68 82q0 51 39.5 87t119.5 36h13l184 868h-33q-63 0 -90 18.5t-27 63.5q0 51 39 87t121 36h238l-103 -481q150 125 308 125q135 0 217 -70t82 -186q0 -45 -9 -84l-82 -377h13q63 0 89.5 -19.5t26.5 -62.5q0 -51 -39.5 -87t-119.5 -36h-230q-63 0 -89.5 18.5t-26.5 63.5 q0 51 41 87t120 36h13l73 350q8 33 9 63q0 45 -42 72t-112 27q-74 0 -128 -25.5t-159 -111.5l-80 -375h13q117 0 116 -82q0 -53 -40.5 -88t-120.5 -35h-230q-61 0 -87.5 18.5t-26.5 63.5z" />
<glyph unicode="i" d="M147 82q0 51 40 87t120 36h250l102 485h-159q-66 0 -92.5 18.5t-26.5 63.5q0 51 41 87t121 36h364l-145 -690h248q63 0 89.5 -18.5t26.5 -63.5q0 -51 -41 -87t-118 -36h-703q-63 0 -90 18.5t-27 63.5zM745 1184q0 57 46.5 102t105.5 45q45 0 72.5 -27.5t27.5 -70.5 q0 -57 -47 -102.5t-106 -45.5q-41 0 -70 29t-29 70z" />
<glyph unicode="j" d="M170 -338q0 51 40 87t120 36h225q90 0 152.5 47t78.5 127l156 731h-414q-63 0 -89.5 18.5t-26.5 63.5q0 51 40 87t119 36h619l-199 -936q-33 -162 -169 -270.5t-304 -108.5h-231q-63 0 -90 18.5t-27 63.5zM924 1184q0 57 46 102t105 45q45 0 73 -27.5t28 -70.5 q0 -57 -47.5 -102.5t-106.5 -45.5q-41 0 -69.5 29t-28.5 70z" />
<glyph unicode="k" d="M86 82q0 51 39 87t121 36h33l184 868h-33q-63 0 -90 17.5t-27 62.5q0 53 39 89t121 36h238l-148 -690l189 129q-16 31 -17 53q0 51 39 88t121 37h229q63 0 90 -18.5t27 -61.5q0 -53 -41 -89t-119 -36h-55l-285 -196l267 -289h67q63 0 90 -18.5t27 -63.5q0 -51 -41 -87 t-119 -36h-241q-63 0 -90 18.5t-27 63.5q0 51 51 96l-172 187l-43 -29l-70 -336h-239q-61 0 -88 18.5t-27 63.5z" />
<glyph unicode="l" d="M147 82q0 51 40 87t120 36h250l184 868h-161q-117 0 -117 82q0 49 39 86t123 37h364l-227 -1073h248q63 0 89.5 -18.5t26.5 -63.5q0 -51 -41 -87t-118 -36h-703q-63 0 -90 18.5t-27 63.5z" />
<glyph unicode="m" d="M-18 82q0 53 42 88t105 35l102 485q-104 0 -104 82q0 49 40 86t122 37h190l-10 -49q111 76 190 76q119 0 187 -101q115 100 233 101q96 0 157.5 -57.5t61.5 -147.5q0 -29 -6 -64l-96 -448q104 0 104 -82q0 -51 -40.5 -87t-118.5 -36h-193l135 637q4 14 4 39q-4 41 -57 41 q-41 0 -75.5 -18.5t-100.5 -73.5l-88 -420q102 0 102 -82q0 -51 -41 -87t-118 -36h-193l135 637q6 23 6 37q0 43 -57 43q-78 0 -178 -92l-88 -420q104 0 104 -82q0 -51 -41 -87t-118 -36h-181q-63 0 -89.5 18.5t-26.5 63.5z" />
<glyph unicode="n" d="M68 82q0 51 38.5 87t120.5 36h13l102 485q-106 0 -106 82q0 51 40.5 87t120.5 36h193l-21 -98q88 70 156 97.5t152 27.5q135 0 218 -69t83 -181q0 -39 -11 -94l-80 -373q106 0 107 -82q0 -51 -41 -87t-119 -36h-182q-63 0 -90 18.5t-27 63.5q0 49 40 86t110 37l76 364 q6 27 6 47q0 100 -160 101q-72 0 -134.5 -31t-150.5 -108l-78 -373h13q115 0 114 -82q0 -51 -39.5 -87t-119.5 -36h-230q-61 0 -87.5 18.5t-26.5 63.5z" />
<glyph unicode="o" d="M172 356q0 188 152 353q90 98 222 155.5t271 57.5q190 0 310 -108.5t120 -281.5q0 -223 -194.5 -394t-444.5 -171q-197 0 -316.5 106.5t-119.5 282.5zM381 393q0 -96 75.5 -158.5t194.5 -62.5q156 0 271.5 97.5t115.5 226.5q0 96 -75.5 158.5t-192.5 62.5 q-158 0 -273.5 -96.5t-115.5 -227.5z" />
<glyph unicode="p" d="M-86 -338q0 51 39 87t121 36h32l193 905h-35q-63 0 -88.5 18.5t-25.5 63.5q0 51 38.5 87t120.5 36h238l-21 -92q164 119 340 119q184 0 297 -112t113 -284q0 -221 -178 -388t-424 -167q-162 0 -289 115l-74 -301h119q61 0 88 -18.5t27 -61.5q0 -53 -40 -89t-120 -36h-356 q-61 0 -88 18.5t-27 63.5zM453 408q0 -96 67.5 -164t188.5 -68q147 0 253.5 98.5t106.5 217.5q0 94 -70.5 159.5t-183.5 65.5q-145 0 -250.5 -92t-111.5 -217z" />
<glyph unicode="q" d="M154 338q0 221 181 402.5t429 181.5q176 0 289 -119l18 92h240q61 0 87.5 -18.5t26.5 -63.5q0 -51 -39.5 -87t-119.5 -36h-33l-193 -905h33q63 0 90 -18.5t27 -63.5q0 -51 -40 -87t-120 -36h-356q-61 0 -89 17.5t-28 62.5q0 53 40 89t120 36h119l73 301 q-172 -115 -342 -115q-180 0 -296.5 106.5t-116.5 260.5zM367 401q0 -94 71.5 -159.5t186.5 -65.5q147 0 254.5 97.5t107.5 211.5q0 100 -69.5 166t-188.5 66q-150 0 -256 -98.5t-106 -217.5z" />
<glyph unicode="r" d="M131 82q0 51 39 87t119 36h121l102 487h-72q-61 0 -87.5 18.5t-26.5 61.5q0 49 41 86t116 37h277l-27 -131q147 94 223 125t152 31q82 0 152.5 -49.5t70.5 -102.5q0 -47 -40 -86t-87 -39q-27 0 -72 37t-73 37q-47 0 -131 -46t-250 -163l-64 -303h285q63 0 90 -18.5 t27 -63.5q0 -51 -41 -87t-119 -36h-610q-61 0 -88 18.5t-27 63.5z" />
<glyph unicode="s" d="M170 80q0 16 8 57l15 68q31 137 133 137q78 0 86 -90q72 -80 239 -80q104 0 181 28.5t77 67.5t-43 60.5t-194 38.5q-186 20 -269.5 72.5t-83.5 152.5q0 139 141.5 234.5t346.5 95.5q147 0 252 -54q35 53 78 54q35 0 55 -20.5t20 -53.5q0 -23 -8 -62l-16 -75 q-31 -135 -131 -136q-61 0 -84 64l-6 18q-68 59 -197 60q-84 0 -151.5 -24.5t-67.5 -53.5q0 -27 45 -43q25 -10 164 -31q223 -31 301 -89t78 -169q0 -143 -150.5 -241.5t-372.5 -98.5q-178 0 -290 60q-39 -25 -72 -25q-37 0 -60.5 21.5t-23.5 56.5z" />
<glyph unicode="t" d="M193 772q0 51 38.5 87t120.5 36h72l39 180q29 135 131 135q35 0 58.5 -22.5t23.5 -54.5q0 -18 -8 -58l-39 -180h370q63 0 90 -17.5t27 -64.5q0 -51 -40 -87t-120 -36h-370l-86 -401q-6 -29 -6 -49q0 -68 157 -68q170 0 316 70q45 23 73 22q35 0 57.5 -22.5t22.5 -59.5 q0 -63 -91 -114.5t-209 -76t-224 -24.5q-133 0 -224 55.5t-91 165.5q0 31 6 62l94 440h-72q-63 0 -89.5 18.5t-26.5 63.5z" />
<glyph unicode="u" d="M193 774q0 49 37.5 85t121.5 36h238l-121 -569q-6 -25 -6 -47q0 -100 153 -101q76 0 135.5 27.5t155.5 111.5l80 375h-72q-63 0 -89.5 18.5t-26.5 61.5q0 51 39 87t120 36h277l-148 -690q106 0 107 -80q0 -53 -41 -89t-121 -36h-192l20 98q-92 -72 -156.5 -98.5 t-150.5 -26.5q-135 0 -218 70t-83 182q0 37 10 94l78 373h-33q-61 0 -87.5 18.5t-26.5 63.5z" />
<glyph unicode="v" d="M166 772q0 49 40 86t120 37h270q61 0 88 -18.5t27 -63.5q0 -51 -40 -87t-118 -36h-12l129 -440l315 440h-20q-63 0 -90 18.5t-27 63.5q0 51 39 87t121 36h274q61 0 89 -18.5t28 -61.5q0 -53 -40 -89t-120 -36h-33l-489 -690h-211l-197 690h-26q-63 0 -90 18.5t-27 63.5z " />
<glyph unicode="w" d="M168 772q0 51 40 87t120 36h188q61 0 88 -17.5t27 -62.5q0 -51 -38 -87t-116 -36l12 -313l191 323h182l56 -323l149 313h-14q-61 0 -89 18.5t-28 61.5q0 51 40 87t120 36h188q63 0 90 -18.5t27 -63.5q0 -47 -36 -82t-95 -39l-318 -692h-188l-68 371l-217 -371h-192 l-27 692q-92 4 -92 80z" />
<glyph unicode="x" d="M61 82q0 49 37 84t99 39l352 262l-215 223q-88 8 -88 82q0 53 41 88t119 35h190q61 0 88 -18.5t27 -63.5q0 -70 -76 -113l104 -100l146 102q-37 31 -37 68q0 53 40 89t120 36h188q61 0 89 -18.5t28 -61.5q0 -51 -37 -85t-96 -40l-318 -225l254 -260q92 -4 92 -82 q0 -51 -40 -87t-119 -36h-230q-63 0 -90 18.5t-27 63.5q0 41 30 76t77 47l-127 125l-178 -125q35 -16 48 -32.5t13 -45.5q0 -55 -40 -91t-122 -36h-225q-63 0 -90 18.5t-27 63.5z" />
<glyph unicode="y" d="M-27 -338q0 51 40 87t120 36h205l160 221l-207 684q-82 12 -82 82q0 51 40 87t120 36h184q61 0 88 -17.5t27 -62.5q0 -55 -40 -89t-106 -36l140 -457l339 457h-10q-100 0 -100 82q0 51 40 87t120 36h188q63 0 90 -18.5t27 -63.5q0 -49 -36 -83t-93 -40l-666 -905h10 q61 0 89 -18.5t28 -61.5q0 -53 -40 -89t-120 -36h-438q-63 0 -90 18.5t-27 63.5z" />
<glyph unicode="z" d="M174 0l37 170l643 520h-303l-4 -18q-31 -135 -131 -135q-35 0 -58.5 21.5t-23.5 53.5q0 23 8 60l47 223h838l-35 -166l-649 -524h360q31 111 125 110q35 0 58.5 -21.5t23.5 -53.5q0 -18 -8 -60l-39 -180h-889z" />
<glyph unicode="{" d="M444 465q0 53 34 88t91 41q41 4 57.5 19.5t24.5 58.5l72 336q23 109 119 188.5t205 79.5q43 0 67.5 -21.5t24.5 -60.5q0 -47 -37 -84t-88 -41q-41 0 -60.5 -16.5t-29.5 -59.5l-68 -321q-14 -68 -34.5 -104t-63.5 -76q33 -53 33 -95q0 -35 -17 -106l-67 -322 q-4 -25 -5 -30q0 -25 12.5 -34t49.5 -11q39 -2 60.5 -24t21.5 -56q0 -53 -40 -90t-99 -37q-90 0 -151.5 61.5t-61.5 153.5q0 25 6 53l73 354q6 20 7 37q0 35 -56 41q-80 8 -80 78z" />
<glyph unicode="|" d="M610 -303v1587h205v-1587h-205z" />
<glyph unicode="}" d="M295 -231q0 47 37 83.5t88 41.5q41 0 60.5 16t29.5 59l68 322q14 68 34.5 103.5t63.5 76.5q-33 53 -33 94q0 35 16 107l68 321q4 25 4 31q0 25 -12 34t-49 11q-82 6 -82 82q0 53 41 89t98 36q90 0 151.5 -61.5t61.5 -153.5q0 -25 -6 -53l-74 -355q-6 -23 -6 -37 q0 -35 55 -41q80 -8 80 -77q0 -53 -33.5 -88t-91.5 -41q-39 -4 -55 -20.5t-27 -57.5l-71 -336q-23 -109 -119 -188.5t-205 -79.5q-43 0 -67.5 21.5t-24.5 60.5z" />
<glyph unicode="~" d="M233 492q0 63 113 167q141 129 258 129q63 0 112.5 -31.5t135.5 -127.5q41 -47 68 -47q33 0 120 94q68 70 117 69q35 0 59.5 -23.5t24.5 -57.5q0 -53 -72 -127q-98 -98 -160.5 -134t-131.5 -36q-106 0 -246 153q-53 55 -76 55q-25 0 -113 -86q-51 -49 -73.5 -63 t-49.5 -14q-35 0 -60.5 23.5t-25.5 56.5z" />
<glyph unicode="&#xa0;" />
<glyph unicode="&#xa2;" d="M295 543q0 176 127 324.5t317 191.5l33 158q27 137 133 137q35 0 58.5 -22.5t23.5 -55.5q0 -4 -10 -59l-29 -138q86 -12 139 -49q25 8 43 8q37 0 60.5 -21.5t23.5 -55.5q0 -16 -8 -58l-18 -86q-29 -135 -131 -135q-41 0 -59.5 18.5t-20.5 85.5q-2 88 -137 88 t-235.5 -84.5t-100.5 -199.5q0 -82 60.5 -134.5t154.5 -52.5q113 0 231 74q39 25 76 25q35 0 58.5 -24.5t23.5 -59.5q0 -70 -96.5 -129.5t-249.5 -85.5l-33 -158q-29 -135 -133 -135q-33 0 -57.5 22.5t-24.5 53.5q0 27 8 59l37 166q-127 33 -195.5 120t-68.5 212z" />
<glyph unicode="&#xa3;" d="M131 82q0 98 127 123q68 6 118 83t73 210h-142q-61 0 -89 17t-28 65q0 51 41 86.5t121 35.5h90q-8 49 -8 86q0 182 127 309.5t309 127.5q111 0 197 -58.5t86 -132.5q0 -47 -40 -86t-87 -39q-29 0 -42 9.5t-40 48.5q-39 53 -117 53q-82 0 -132 -50t-50 -132q0 -41 6 -111 l2 -25h140q63 0 89.5 -18t26.5 -63q0 -51 -41 -87t-118 -36h-95q-29 -166 -108 -293h418q35 94 120 94q37 0 60.5 -21.5t23.5 -56.5q0 -94 -71.5 -157.5t-192.5 -63.5h-657q-63 0 -90 18.5t-27 63.5z" />
<glyph unicode="&#xa5;" d="M272 1065q0 51 40 87t120 36h189q63 0 89.5 -18.5t26.5 -61.5t-29.5 -78t-72.5 -45l133 -272l252 272q-63 18 -64 80q0 51 40 87t120 36h187q63 0 89.5 -18.5t26.5 -63.5q0 -51 -41 -87t-112 -36h-4l-371 -408h147q53 0 54 -45q0 -31 -21.5 -50t-56.5 -19h-199l-14 -70 h198q53 0 54 -43q0 -33 -21.5 -52.5t-56.5 -19.5h-199l-14 -71h94q63 0 90 -18.5t27 -61.5q0 -53 -41 -89t-119 -36h-395q-63 0 -90 18.5t-27 63.5q0 51 39 87t121 36h96l14 71h-198q-53 0 -54 46q0 31 21.5 50t56.5 19h199l14 70h-198q-51 0 -52 45q0 31 21.5 50t54.5 19 h148l-197 408h-16q-99 0 -99 82z" />
<glyph unicode="&#xa9;" d="M119 565q0 246 174 420t419.5 174t420 -174t174.5 -420t-174.5 -420t-420 -174t-419.5 174t-174 420zM242 565.5q0 -194.5 138 -333t332.5 -138.5t333 138.5t138.5 333t-138.5 332.5t-333 138t-332.5 -138t-138 -332.5zM393 528l13 58q23 109 128 184.5t238 75.5 q84 0 154 -29l10 -2q25 18 53 19q59 0 43 -74l-14 -74q-12 -57 -74 -57q-18 0 -26.5 1t-16.5 10t-8 26q0 27 -42 43t-99 16q-84 0 -146.5 -38t-77.5 -101l-10 -56q-14 -61 38 -92.5t151 -31.5q63 0 97 8t79 39q23 16 45 16q27 0 39 -19.5t8 -41.5q-8 -43 -99.5 -84 t-197.5 -41q-147 0 -227.5 70.5t-57.5 174.5z" />
<glyph unicode="&#xad;" d="M207 551q0 51 40 87t120 36h784q61 0 89 -18.5t28 -61.5q0 -53 -40 -89t-120 -36h-784q-63 0 -90 18.5t-27 63.5z" />
<glyph unicode="&#xae;" d="M119 565q0 246 174 420t419.5 174t420 -174t174.5 -420t-174.5 -420t-420 -174t-419.5 174t-174 420zM242 565.5q0 -194.5 138 -333t332.5 -138.5t333 138.5t138.5 333t-138.5 332.5t-333 138t-332.5 -138t-138 -332.5zM367 356q12 59 88 60h14l63 297h-16q-76 0 -61 61 q12 59 92 60h250q113 0 173 -49.5t44 -120.5q-16 -82 -125 -136q41 -37 88 -112h18q47 0 57.5 -15.5t4.5 -44.5q-12 -61 -92 -61h-88q0 2 -3 2q-31 68 -80 131.5t-81 73.5h-103l-18 -86h35q47 0 59 -16.5t6 -43.5q-12 -61 -90 -61h-170q-45 0 -58 18t-7 43zM631 594h80 q70 0 119 19.5t55 52.5q6 23 -25 35t-84 12h-121z" />
<glyph unicode="&#xb4;" d="M682 1094q10 45 49 67l381 230q29 14 49 14q33 0 52.5 -23.5t13.5 -58.5q-10 -43 -51 -68l-381 -229q-25 -14 -50 -14q-35 0 -53 24.5t-10 57.5z" />
<glyph unicode="&#x2000;" horiz-adv-x="710" />
<glyph unicode="&#x2001;" horiz-adv-x="1423" />
<glyph unicode="&#x2002;" horiz-adv-x="710" />
<glyph unicode="&#x2003;" horiz-adv-x="1423" />
<glyph unicode="&#x2004;" horiz-adv-x="473" />
<glyph unicode="&#x2005;" horiz-adv-x="354" />
<glyph unicode="&#x2006;" horiz-adv-x="235" />
<glyph unicode="&#x2007;" horiz-adv-x="235" />
<glyph unicode="&#x2008;" horiz-adv-x="176" />
<glyph unicode="&#x2009;" horiz-adv-x="284" />
<glyph unicode="&#x200a;" horiz-adv-x="77" />
<glyph unicode="&#x2010;" d="M207 551q0 51 40 87t120 36h784q61 0 89 -18.5t28 -61.5q0 -53 -40 -89t-120 -36h-784q-63 0 -90 18.5t-27 63.5z" />
<glyph unicode="&#x2011;" d="M207 551q0 51 40 87t120 36h784q61 0 89 -18.5t28 -61.5q0 -53 -40 -89t-120 -36h-784q-63 0 -90 18.5t-27 63.5z" />
<glyph unicode="&#x2012;" d="M207 551q0 51 40 87t120 36h784q61 0 89 -18.5t28 -61.5q0 -53 -40 -89t-120 -36h-784q-63 0 -90 18.5t-27 63.5z" />
<glyph unicode="&#x2013;" d="M207 551q0 51 40 87t120 36h784q61 0 89 -18.5t28 -61.5q0 -53 -40 -89t-120 -36h-784q-63 0 -90 18.5t-27 63.5z" />
<glyph unicode="&#x2014;" d="M207 551q0 51 40 87t120 36h784q61 0 89 -18.5t28 -61.5q0 -53 -40 -89t-120 -36h-784q-63 0 -90 18.5t-27 63.5z" />
<glyph unicode="&#x2018;" d="M764 1325h252v-584q0 -47 -42 -83.5t-95 -36.5q-37 0 -60.5 19t-25.5 54z" />
<glyph unicode="&#x2019;" d="M510 702q0 20 8 39l256 584h246l-299 -631q-35 -74 -119 -73q-39 0 -65.5 23t-26.5 58z" />
<glyph unicode="&#x201c;" d="M586 1325h250v-584q0 -47 -41 -83.5t-97 -36.5q-80 0 -84 73zM942 1325h252v-584q0 -47 -42 -83.5t-95 -36.5q-35 0 -59.5 19t-26.5 54z" />
<glyph unicode="&#x201d;" d="M332 702q0 20 8 39l254 584h246l-299 -631q-33 -74 -117 -73q-41 0 -66.5 23t-25.5 58zM688 702q0 23 8 39l256 584h246l-299 -631q-37 -74 -113 -73q-43 0 -70.5 22t-27.5 59z" />
<glyph unicode="&#x2022;" d="M340 449q0 152 108.5 260t260.5 108q154 0 261 -108.5t107 -259.5q0 -154 -107.5 -261.5t-260.5 -107.5q-152 0 -260.5 107.5t-108.5 261.5z" />
<glyph unicode="&#x2026;" d="M70 78q0 61 52 111.5t116 50.5h34q49 0 80 -30t31 -77q0 -63 -51 -113.5t-117 -50.5h-35q-49 0 -79.5 31t-30.5 78zM479 78q0 61 52.5 111.5t115.5 50.5h35q49 0 80 -30t31 -77q0 -63 -51.5 -113.5t-116.5 -50.5h-35q-49 0 -80 31t-31 78zM889 78q0 61 52 111.5t116 50.5 h35q49 0 79.5 -30t30.5 -77q0 -63 -51 -113.5t-117 -50.5h-35q-49 0 -79.5 31t-30.5 78z" />
<glyph unicode="&#x202f;" horiz-adv-x="284" />
<glyph unicode="&#x205f;" horiz-adv-x="354" />
<glyph unicode="&#x20ac;" d="M109 463q0 33 19 52.5t50 19.5h58l16 86h-55q-47 0 -47 43q0 33 19 52t52 19h62q66 209 237.5 348.5t362.5 139.5q127 0 247 -70q12 -6 15 -8q47 49 90 49q33 0 52.5 -20.5t19.5 -55.5q0 -23 -11 -59l-36 -172q-27 -135 -119 -135q-39 0 -54.5 20.5t-15.5 87.5 q0 72 -66.5 115t-154.5 43q-106 0 -198.5 -77t-141.5 -206h399q45 0 45 -43q0 -33 -19.5 -52t-49.5 -19h-408l-16 -86h350q45 0 45 -43q0 -33 -19.5 -52.5t-50.5 -19.5h-342q6 -244 244 -244q82 0 162 43t108 115q27 66 52.5 87t62.5 21q29 0 50.5 -20.5t21.5 -52.5 q0 -6 -10 -62l-33 -172q-25 -135 -119 -135q-47 0 -70 49q-96 -49 -146 -63.5t-122 -14.5q-199 0 -314.5 113t-115.5 303l2 33h-63q-45 0 -45 43z" />
<glyph unicode="&#x2122;" horiz-adv-x="1327" d="M453 1040l32 154h492l-33 -154q-10 -49 -61.5 -49t-40.5 49l12 52h-94l-53 -246h59q39 0 49 -14.5t4 -36.5q-10 -51 -76 -52h-217q-37 0 -48 14.5t-7 37.5q12 51 78 51h57l51 246h-92l-10 -52q-10 -49 -61 -49t-41 49zM958 795q10 49 68 51l51 246q-45 6 -37 51 q10 51 74 51h105h2l82 -213l170 211l2 2h102q39 0 50 -14.5t7 -36.5q-12 -45 -61 -51l-51 -246q55 -2 45 -51q-10 -51 -76 -52h-121q-39 0 -50 14.5t-7 37.5q12 51 78 51h28l37 170l-137 -172h-86l-70 172l-35 -170h29q39 0 49.5 -14.5t3.5 -36.5q-10 -51 -75 -52h-121 q-37 0 -48.5 14.5t-7.5 37.5z" />
<glyph unicode="&#xe000;" horiz-adv-x="895" d="M0 895h895v-895h-895v895z" />
<glyph unicode="&#xfb01;" d="M-8 82q0 51 40 87t120 36h88l102 485h-78q-63 0 -91 19.5t-28 62.5q0 51 39 87t123 36h78l18 80q29 129 127.5 215t219.5 86q94 0 155.5 -31t61.5 -78q0 -49 -39 -88t-86 -39q-8 0 -61.5 16.5t-71.5 16.5q-33 0 -62 -28.5t-39 -69.5l-18 -80h659l-145 -690h74 q61 0 87.5 -17.5t26.5 -62.5q0 -53 -40 -89t-117 -36h-359q-63 0 -90 19.5t-27 62.5q0 51 40 87t120 36h80l102 485h-454l-103 -485h66q63 0 90 -18.5t27 -61.5q0 -53 -41 -89t-119 -36h-358q-63 0 -90 19.5t-27 62.5zM1087 1184q0 57 46.5 102t105.5 45q45 0 72.5 -27.5 t27.5 -70.5q0 -57 -47 -102.5t-106 -45.5q-41 0 -70 29t-29 70z" />
<glyph unicode="&#xfb02;" d="M-16 82q0 51 39.5 87t119.5 36h88l103 485h-76q-119 0 -119 82q0 51 40 87t122 36h76l16 78q27 127 127.5 215t216.5 88h584l-227 -1071h75q63 0 91 -18.5t28 -61.5q0 -53 -41 -89t-121 -36h-360q-117 0 -117 82q0 51 41 87t121 36h78l184 866h-373q-35 0 -64.5 -27.5 t-37.5 -70.5l-16 -78h67q63 0 90 -18.5t27 -61.5q0 -53 -41 -89t-119 -36h-67l-103 -485h66q63 0 89.5 -18.5t26.5 -63.5q0 -51 -40.5 -87t-118.5 -36h-361q-61 0 -87.5 18.5t-26.5 63.5z" />
<glyph unicode="&#xfb03;" horiz-adv-x="3686" d="M2605 82q0 51 40 87t120 36h250l102 485h-159q-66 0 -92.5 18.5t-26.5 63.5q0 51 41 87t121 36h364l-145 -690h248q63 0 89.5 -18.5t26.5 -63.5q0 -51 -41 -87t-118 -36h-703q-63 0 -90 18.5t-27 63.5zM3203 1184q0 57 46.5 102t105.5 45q45 0 72.5 -27.5t27.5 -70.5 q0 -57 -47 -102.5t-106 -45.5q-41 0 -70 29t-29 70zM1401 82q0 51 40 87t120 36h119l102 485h-94q-66 0 -92.5 18.5t-26.5 63.5q0 51 39 87t123 36h94l16 76q31 141 155 223t308 82q340 0 340 -109q0 -47 -38 -86t-83 -39q-29 0 -134 14.5t-148 14.5q-170 0 -195 -100 l-14 -76h307q63 0 90 -18.5t27 -63.5q0 -51 -40 -87t-120 -36h-309l-103 -485h285q63 0 90 -18.5t27 -61.5q0 -53 -41 -89t-119 -36h-610q-115 0 -115 82zM172 82q0 51 40 87t120 36h119l102 485h-94q-66 0 -92.5 18.5t-26.5 63.5q0 51 39 87t123 36h94l16 76 q31 141 155 223t308 82q340 0 340 -109q0 -47 -38 -86t-83 -39q-29 0 -134 14.5t-148 14.5q-170 0 -195 -100l-14 -76h307q63 0 90 -18.5t27 -63.5q0 -51 -40 -87t-120 -36h-309l-103 -485h285q63 0 90 -18.5t27 -61.5q0 -53 -41 -89t-119 -36h-610q-115 0 -115 82z" />
<glyph unicode="&#xfb04;" horiz-adv-x="3686" d="M2605 82q0 51 40 87t120 36h250l184 868h-161q-117 0 -117 82q0 49 39 86t123 37h364l-227 -1073h248q63 0 89.5 -18.5t26.5 -63.5q0 -51 -41 -87t-118 -36h-703q-63 0 -90 18.5t-27 63.5zM1401 82q0 51 40 87t120 36h119l102 485h-94q-66 0 -92.5 18.5t-26.5 63.5 q0 51 39 87t123 36h94l16 76q31 141 155 223t308 82q340 0 340 -109q0 -47 -38 -86t-83 -39q-29 0 -134 14.5t-148 14.5q-170 0 -195 -100l-14 -76h307q63 0 90 -18.5t27 -63.5q0 -51 -40 -87t-120 -36h-309l-103 -485h285q63 0 90 -18.5t27 -61.5q0 -53 -41 -89t-119 -36 h-610q-115 0 -115 82zM172 82q0 51 40 87t120 36h119l102 485h-94q-66 0 -92.5 18.5t-26.5 63.5q0 51 39 87t123 36h94l16 76q31 141 155 223t308 82q340 0 340 -109q0 -47 -38 -86t-83 -39q-29 0 -134 14.5t-148 14.5q-170 0 -195 -100l-14 -76h307q63 0 90 -18.5t27 -63.5 q0 -51 -40 -87t-120 -36h-309l-103 -485h285q63 0 90 -18.5t27 -61.5q0 -53 -41 -89t-119 -36h-610q-115 0 -115 82z" />
</font>
</defs>
</svg>
